<?xml version="1.0" encoding="UTF-8" standalone="no"?>
<!-- Created with Inkscape (http://www.inkscape.org/) -->

<svg
   xmlns:dc="http://purl.org/dc/elements/1.1/"
   xmlns:cc="http://creativecommons.org/ns#"
   xmlns:rdf="http://www.w3.org/1999/02/22-rdf-syntax-ns#"
   xmlns:svg="http://www.w3.org/2000/svg"
   xmlns="http://www.w3.org/2000/svg"
   xmlns:sodipodi="http://sodipodi.sourceforge.net/DTD/sodipodi-0.dtd"
   xmlns:inkscape="http://www.inkscape.org/namespaces/inkscape"
   width="550"
   height="690"
   id="svg2"
   version="1.1"
   inkscape:version="0.48.4 r9939"
   sodipodi:docname="Logo 2013 America de Cali.svg">
  <defs
     id="defs4" />
  <sodipodi:namedview
     id="base"
     pagecolor="#ffffff"
     bordercolor="#666666"
     borderopacity="1.0"
     inkscape:pageopacity="0.0"
     inkscape:pageshadow="2"
     inkscape:zoom="0.75362319"
     inkscape:cx="116.43269"
     inkscape:cy="345"
     inkscape:document-units="px"
     inkscape:current-layer="layer1"
     showgrid="false"
     inkscape:window-width="1029"
     inkscape:window-height="737"
     inkscape:window-x="25"
     inkscape:window-y="25"
     inkscape:window-maximized="0" />
  <metadata
     id="metadata7">
    <rdf:RDF>
      <cc:Work
         rdf:about="">
        <dc:format>image/svg+xml</dc:format>
        <dc:type
           rdf:resource="http://purl.org/dc/dcmitype/StillImage" />
        <dc:title></dc:title>
      </cc:Work>
    </rdf:RDF>
  </metadata>
  <g
     inkscape:label="Layer 1"
     inkscape:groupmode="layer"
     id="layer1"
     transform="translate(0,-362.36218)">
    <g
       id="g2989"
       transform="matrix(0.91644799,0,0,0.99230677,5.80243,365.05735)">
      <path
         id="path2991"
         d="m 372.4875,636.16893 9.93717,-0.74998 4.87483,-0.43749 4.93734,-0.37499 9.56218,-0.87497 9.43718,-0.87498 2.24992,-0.31249 2.31243,-0.24999 4.56234,-0.49998 4.49985,-0.56249 4.49985,-0.49998 8.74971,-1.12497 4.24986,-0.62498 2.12492,-0.31249 2.18743,-0.25 4.12486,-0.68748 4.18736,-0.62498 8.12473,-1.37496 3.93737,-0.74998 1.93743,-0.37498 1.99993,-0.3125 3.87487,-0.74997 3.87487,-0.68748 7.43726,-1.62496 7.31225,-1.62495 3.49988,-0.87497 1.74994,-0.43749 1.81244,-0.37499 6.93727,-1.74995 2.37492,-0.49998 2.43742,-0.49999 2.37492,-0.56248 2.37492,-0.49999 2.24992,-0.62498 2.31243,-0.62498 2.24992,-0.68748 2.24993,-0.62498 0.99996,-0.43749 1.06247,-0.37499 2.12492,-0.81248 2.06244,-0.87497 2.12492,-0.81248 0.93747,-0.49998 0.99997,-0.43749 1.99993,-0.93747 1.93744,-0.99997 0.93747,-0.49999 0.99996,-0.43749 1.81244,-1.12496 0.87497,-0.56249 0.93747,-0.49998 1.74994,-1.18747 1.81244,-1.12496 1.62495,-1.24997 1.68744,-1.24996 1.62495,-1.31246 1.62494,-1.24997 1.49995,-1.43745 1.49995,-1.37496 0.68748,-0.74998 0.74997,-0.68748 1.49995,-1.43746 0.62498,-0.81248 0.68748,-0.74997 1.37495,-1.56246 1.31246,-1.62495 0.62498,-0.81248 0.68747,-0.74998 1.18746,-1.74994 0.56248,-0.87498 0.62498,-0.81248 1.12497,-1.81244 1.18746,-1.74995 0.99996,-1.87495 1.06247,-1.87494 0.99996,-1.93745 0.99997,-1.87494 0.87497,-2.06244 0.87497,-1.99994 0.37499,-1.06247 0.43748,-0.99997 0.87497,-2.06244 0.31249,-1.12497 0.37499,-1.06247 0.74998,-2.18743 0.68747,-2.24994 0.31249,-1.12497 0.37499,-1.06246 0.56248,-2.37494 0.24999,-1.18746 0.31249,-1.12497 0.49999,-2.37493 0.56248,-2.37493 0.37498,-2.49993 0.43749,-2.49992 0.37499,-2.56243 0.43748,-2.49993 0.24999,-2.68742 0.25,-2.62492 0.0625,-1.37496 0.125,-1.31246 0.24999,-2.68742 0.125,-2.81242 0.12499,-2.74992 0,-1.43746 0.0625,-1.37496 0.125,-2.81242 0,-491.173157 -12.31209,4.249876 -12.0621,3.999883 -5.9998,1.874945 -5.8748,1.812447 -5.8748,1.687451 -5.74981,1.687451 -5.8123,1.499956 -5.68731,1.499956 -5.68731,1.37496 -5.56231,1.37496 -5.62482,1.249963 -5.49981,1.187466 -10.81214,2.124938 -5.43732,0.874974 -5.31232,0.874974 -10.43715,1.499957 -10.31215,1.124967 -5.06233,0.437487 -4.93734,0.437487 -9.93716,0.499986 -4.87484,0.124996 -4.74984,0.124996 -4.81234,-0.0625 -4.68734,-0.0625 -9.18719,-0.374989 -4.62485,-0.374989 -4.49985,-0.437487 -4.49984,-0.499986 -4.37486,-0.562483 -4.43735,-0.68748 -4.31235,-0.68748 -4.24986,-0.812476 -4.18736,-0.874975 -4.18736,-0.999971 -4.12486,-1.062469 -4.06237,-1.124967 -3.99986,-1.187465 -7.93724,-2.624924 -3.87487,-1.437458 -3.74987,-1.499956 -3.81237,-1.624952 -3.74988,-1.687451 -3.68737,-1.749949 -3.56238,-1.812447 -3.62488,-1.937444 -3.49988,-1.999941 -3.43739,-2.06244 -3.37488,-2.124938 -3.43739,-2.249934 -3.31239,-2.312433 -3.24989,-2.37493 -3.18739,-2.437429 -3.1874,-2.5624254 -3.12489,-2.6249233 -3.0624,-2.6874216 L 293.74014,0 l -3.06239,2.7499197 -1.56245,1.3124617 -1.49995,1.3749599 -3.18739,2.6249233 -3.1249,2.5624254 -3.24989,2.437429 -3.24989,2.37493 -3.37489,2.312433 -3.31239,2.249934 -3.49988,2.124938 -1.74994,0.999971 -1.68744,1.062469 -3.56238,1.999941 -3.49989,1.937444 -1.87493,0.874974 -1.81244,0.937473 -3.62488,1.749949 -3.74988,1.687451 -3.68737,1.624952 -3.87487,1.499956 -3.87487,1.437458 -1.99994,0.624982 -1.93743,0.68748 -1.99993,0.624982 -1.93744,0.68748 -2.06243,0.562483 -1.99993,0.624982 -4.06237,1.124967 -4.12486,1.062469 -4.12486,0.999971 -4.24986,0.874975 -4.24985,0.812476 -4.37486,0.68748 -2.18742,0.312491 -2.12493,0.374989 -2.24993,0.249992 -2.18742,0.312491 -4.43735,0.499986 -4.49985,0.437487 -4.49985,0.374989 -2.37492,0.0625 -2.31242,0.124997 -4.62485,0.187494 -4.74984,0.0625 -4.74984,0.0625 -4.87484,-0.124996 -4.81234,-0.124996 -4.93733,-0.249993 -4.93733,-0.249993 -2.56242,-0.249992 -2.49991,-0.187495 -2.56242,-0.249993 -2.49991,-0.187494 -5.12483,-0.562484 -5.12483,-0.562483 -5.24982,-0.749978 -5.18733,-0.749979 -5.312322,-0.874974 -5.312322,-0.874974 -5.499815,-1.062469 -2.749908,-0.562484 -2.68741,-0.499985 -2.812406,-0.624982 -2.749907,-0.562484 -5.499816,-1.249963 -5.624811,-1.37496 -5.624811,-1.37496 -5.749807,-1.499956 -5.687309,-1.499956 -5.874803,-1.687451 -2.937402,-0.874975 -2.874903,-0.812476 -2.9999,-0.937473 -2.937401,-0.87498 L 24.249186,26.999212 18.18689,24.99927 12.187091,22.999329 6.0622966,20.874391 0,18.749453 0,509.92261 l 0.0624979,5.62484 0.06249791,2.74992 0.1874937,2.81242 0.12499581,2.68742 0.24999161,2.68742 0.56248117,5.31234 0.6874769,5.06236 0.3749874,2.49992 0.4999832,2.49993 1.0624644,4.74986 0.5624811,2.31243 0.6874769,2.37494 1.312456,4.43737 0.6874769,2.18743 0.8124727,2.18744 0.7499749,2.06244 0.8749706,2.06244 1.8124389,4.06238 1.937435,3.81239 0.999967,1.87494 1.124962,1.87495 2.312422,3.56239 2.437419,3.4374 2.562414,3.18741 2.687409,3.12491 1.374954,1.43746 1.49995,1.43746 3.062397,2.81241 3.187393,2.56243 1.624946,1.24996 1.749941,1.24997 1.687443,1.12496 1.81244,1.18747 3.687376,2.18743 1.812439,0.93748 1.937435,0.99997 3.937368,1.87494 1.999933,0.81248 2.124928,0.87497 4.312356,1.62496 4.437351,1.31246 2.249924,0.62498 2.374921,0.62498 2.312422,0.49999 2.437418,0.56248 4.937334,0.99997 6.812272,1.74995 7.062263,1.68745 7.24976,1.62495 7.56224,1.62496 3.74988,0.68748 3.87487,0.74997 7.93723,1.43746 8.12473,1.37496 4.12486,0.62498 4.24986,0.68748 4.18736,0.56249 4.31235,0.62498 8.74971,1.12497 8.9372,1.06247 4.56235,0.49998 4.68734,0.56248 9.31219,0.87498 9.62467,0.87497 9.81217,0.81248 10.06217,0.74998 3.68737,0.31249 3.68738,0.49998 3.56238,0.49999 3.49988,0.68748 3.37489,0.68748 3.37488,0.81248 3.2499,0.87497 3.18739,1.06247 3.0624,0.99997 2.99989,1.12497 2.87491,1.18746 2.8749,1.37496 2.74991,1.37496 2.68741,1.49996 2.56241,1.56245 2.56242,1.68745 2.37492,1.62496 2.31242,1.81244 2.24992,1.87495 2.18743,1.99994 2.06243,1.99994 1.99994,2.18744 1.93743,2.18743 1.87494,2.37493 1.68744,2.31244 1.68744,2.49992 1.56245,2.49993 1.56245,2.68742 1.37495,2.68742 1.37496,2.81242 1.24995,2.87492 1.24996,3.06241 1.12497,-3.06241 1.24995,-2.87492 1.31246,-2.81242 1.43745,-2.68742 1.43745,-2.68742 1.62495,-2.49993 1.68744,-2.49992 1.81244,-2.31244 1.74994,-2.37493 1.93744,-2.18743 1.99993,-2.18744 2.12493,-1.99994 2.12493,-1.99994 2.31242,-1.87495 2.31242,-1.81244 2.49992,-1.62496 2.43742,-1.68745 2.56241,-1.56245 2.62491,-1.49996 2.81241,-1.37496 2.8124,-1.37496 2.9374,-1.18746 2.9999,-1.12497 3.1249,-0.99997 3.12489,-1.06247 3.2499,-0.87497 3.31238,-0.81248 3.43739,-0.68748 3.43738,-0.68748 3.62488,-0.49999 3.68738,-0.49998 3.81237,-0.31249 z m 127.49572,-33.74902 -5.74981,1.56246 -5.7498,1.49995 -11.37462,2.74992 -5.74981,1.24997 -5.62481,1.18746 -5.74981,1.06247 -5.62481,0.99997 -5.7498,0.87498 -5.74981,0.81247 -5.74981,0.68748 -5.62481,0.62498 -11.37462,0.99997 -5.7498,0.37499 -5.62482,0.31249 -5.7498,0.3125 -5.56232,0.43748 -5.43731,0.43749 -5.31233,0.56248 -5.18732,0.56249 -4.99983,0.68748 -4.93734,0.68748 -4.68734,0.87497 -4.68734,0.81248 -4.43735,0.93747 -4.37486,0.93747 -4.18736,1.12497 -4.06236,1.06247 -3.93737,1.18746 -3.81237,1.24997 -3.62488,1.37496 -3.56238,1.31246 -3.37489,1.43746 -3.31239,1.49995 -3.06239,1.62496 -2.9999,1.56245 -2.81241,1.68745 -2.68741,1.74995 -2.56241,1.87495 -2.43742,1.81244 -2.31242,1.93745 -2.18743,1.99994 -1.99993,2.12494 -1.93744,2.12493 -1.68744,2.24994 -1.62495,2.24993 -1.43745,2.37493 -1.56244,-2.37493 -1.56245,-2.24993 -1.81244,-2.24994 -1.81244,-2.12493 -2.06243,-2.12494 -2.12493,-1.99994 -2.31242,-1.93745 -2.37492,-1.81244 -2.62491,-1.87495 -2.68741,-1.74995 -2.87491,-1.68745 -2.9374,-1.56245 -3.18739,-1.62496 -3.1874,-1.49995 -3.43738,-1.43746 -3.43738,-1.31246 -3.68738,-1.37496 -3.81237,-1.24997 -3.93737,-1.18746 -4.06236,-1.06247 -4.24986,-1.12497 -4.31236,-0.93747 -4.49985,-0.93747 -4.56234,-0.81248 -4.81234,-0.87497 -4.87484,-0.68748 -5.06233,-0.68748 -5.12483,-0.56249 -5.31232,-0.56248 -5.43732,-0.43749 -5.56231,-0.43748 -5.68731,-0.3125 -5.74981,-0.31249 -5.7498,-0.37499 -11.37462,-0.99997 -5.74981,-0.62498 -5.62481,-0.68748 -5.74981,-0.81247 -5.62481,-0.87498 -5.7498,-0.99997 -5.74981,-1.06247 -5.74981,-1.18746 -5.62481,-1.24997 -11.374618,-2.74992 -5.749807,-1.49995 -5.624811,-1.56246 -2.312423,-0.37499 -2.187426,-0.31249 -4.312355,-0.81247 -4.18736,-0.99997 -2.062431,-0.56249 -1.937435,-0.49998 -3.937368,-1.31246 -3.687376,-1.37496 -3.56238,-1.62496 -3.437385,-1.68745 -1.749941,-0.99997 -1.624946,-0.93747 -3.187393,-2.06244 -3.062397,-2.24994 -1.49995,-1.18746 -1.374954,-1.12497 -2.812405,-2.56242 -2.562414,-2.62493 -2.437418,-2.87491 -2.312423,-2.93742 -1.18746,-1.62495 -1.062464,-1.62495 -2.062431,-3.31241 -1.937435,-3.49989 -0.937469,-1.81245 -0.812472,-1.81245 -1.687444,-3.87488 -1.437451,-3.93739 -1.312456,-4.12488 -1.187461,-4.18738 -0.624979,-2.24993 -0.499983,-2.24994 -0.937468,-4.56236 -0.812473,-4.74986 -0.374987,-2.43743 -0.249992,-2.43743 -0.562481,-5.12485 -0.31249,-5.18735 -0.187493,-5.37484 -0.0625,-5.43734 0,-463.673968 2.749907,0.937473 2.812406,0.999971 5.624811,1.874945 2.749908,0.874974 2.812406,0.937473 5.562313,1.749949 5.437317,1.624953 5.499816,1.624952 5.37482,1.562454 5.437317,1.499957 5.249824,1.37496 2.624912,0.624981 2.68741,0.68748 5.187326,1.249964 5.249823,1.187465 5.124828,1.062469 5.124828,1.062469 2.499917,0.437487 2.562414,0.499986 5.124832,0.937472 4.93733,0.749978 4.93734,0.749979 4.87483,0.624981 4.93734,0.624982 4.81234,0.499985 2.37492,0.187495 2.43741,0.249993 4.74984,0.374989 4.74985,0.312491 4.62484,0.187494 4.62484,0.124996 2.24993,0 2.31242,0.0625 2.24993,0 2.31242,0.0625 2.18743,-0.0625 2.24992,0 4.49985,-0.124997 2.18743,-0.124996 2.24992,-0.0625 4.43735,-0.249993 4.24986,-0.437487 2.12493,-0.249993 2.18742,-0.187494 4.18736,-0.499986 4.24986,-0.562483 4.12486,-0.68748 4.12486,-0.68748 1.99994,-0.437487 2.06243,-0.37499 4.12486,-0.812476 3.93737,-0.999971 3.99986,-0.99997 3.87487,-1.062469 3.93737,-1.124968 3.81237,-1.249963 1.87494,-0.68748 1.93743,-0.624982 3.74988,-1.37496 3.81237,-1.374959 3.62488,-1.562455 3.62488,-1.624952 1.74994,-0.874975 1.81244,-0.812476 1.74994,-0.874975 1.81244,-0.812476 3.43738,-1.874945 3.49989,-1.874945 1.68744,-0.999971 1.74994,-0.937473 3.43738,-1.999941 3.31239,-2.124938 1.62495,-1.124968 1.68744,-1.062469 3.24989,-2.249934 3.24989,-2.312432 3.1249,-2.437429 1.56245,-1.249964 1.62494,-1.187465 3.1249,-2.499927 3.12489,-2.562425 2.9999,2.562425 3.1249,2.499927 6.31229,4.874858 3.18739,2.312432 3.24989,2.249934 3.31239,2.187437 3.37489,2.124938 3.31238,1.999941 3.43739,1.937444 3.43738,1.874945 3.56238,1.874945 3.49989,1.687451 3.62487,1.687451 3.62488,1.624952 3.74988,1.562455 7.43725,2.749919 3.74987,1.312462 3.87487,1.249963 3.87487,1.124968 3.93737,1.062469 3.93737,0.99997 4.06236,0.999971 3.99987,0.812476 4.12486,0.812477 8.31222,1.37496 4.18736,0.562483 4.24986,0.499986 8.6872,0.874974 4.31236,0.249993 4.43735,0.187494 4.43735,0.124997 4.49985,0.0625 4.49985,-0.0625 4.62485,-0.0625 4.62484,-0.124996 4.68734,-0.187494 4.68735,-0.312491 4.74984,-0.374989 4.74984,-0.437488 4.87483,-0.499985 4.81234,-0.624982 4.93734,-0.624981 4.93733,-0.749979 5.06233,-0.749978 10.06216,-1.874945 10.31216,-2.124938 5.18732,-1.187465 5.24983,-1.249964 5.24982,-1.312461 5.37482,-1.37496 5.31232,-1.499957 5.43732,-1.562454 10.93713,-3.249905 5.49982,-1.749949 5.62481,-1.812447 5.62481,-1.874945 5.68731,-1.937444 0,463.67397 -0.125,2.68742 -0.0625,2.74992 -0.125,2.68742 -0.0625,1.31246 0,1.37496 -0.24999,2.56243 -0.18749,2.62492 -0.25,2.56242 -0.12499,1.24997 -0.0625,1.31246 -0.37499,2.43743 -0.18749,1.18746 -0.125,1.24997 -0.37498,2.37493 -0.37499,2.37493 -0.49998,2.24993 -0.25,1.12497 -0.18749,1.18746 -0.49998,2.24994 -0.49999,2.24993 -0.37498,0.99997 -0.31249,1.06247 -0.62498,2.12494 -0.37499,0.99997 -0.31249,1.06247 -0.62498,2.06244 -0.43748,0.93747 -0.37499,0.99997 -0.74998,1.99995 -0.43748,0.93747 -0.37499,0.99997 -0.74997,1.93744 -0.49999,0.87498 -0.43748,0.93747 -0.87497,1.81245 -0.93747,1.74995 -0.93747,1.74994 -1.06246,1.62496 -0.99997,1.68745 -1.06246,1.62495 -1.06247,1.62495 -1.24996,1.43746 -1.18746,1.49996 -1.24995,1.43746 -0.62498,0.68748 -0.56249,0.74997 -1.37495,1.31247 -0.68748,0.62498 -0.62497,0.68748 -1.37496,1.24996 -0.68748,0.62498 -0.62497,0.68748 -1.49995,1.12497 -0.74998,0.56248 -0.68748,0.62498 -1.49995,1.12497 -1.49995,1.12497 -1.62494,0.99997 -0.81247,0.49998 -0.74998,0.56249 -1.62494,0.93747 -1.62495,0.99997 -0.93747,0.37499 -0.87497,0.43749 -1.74994,0.87497 -0.93747,0.37499 -0.87497,0.43749 -1.74994,0.81248 -0.99997,0.31249 -0.93747,0.37499 -1.87493,0.68748 -1.93744,0.62498 -1.87493,0.68748 -2.06244,0.49998 -1.99993,0.56249 -2.06243,0.49998 -2.06243,0.49999 -2.18743,0.37499 -2.12492,0.43748 -1.12497,0.125 -1.06246,0.18749 -2.18743,0.37499 z"
         style="fill:#b00000;fill-opacity:1;fill-rule:evenodd;stroke:none"
         inkscape:connector-curvature="0" />
      <path
         id="path2993"
         d="m 408.73628,617.41947 5.62482,-0.31249 5.7498,-0.37499 11.37462,-0.99997 5.62481,-0.62498 5.74981,-0.68748 5.74981,-0.81247 5.7498,-0.87498 5.62481,-0.99997 5.74981,-1.06247 5.62481,-1.18746 5.74981,-1.24997 11.37462,-2.74992 5.7498,-1.49995 5.74981,-1.56246 2.18743,-0.37499 1.06246,-0.18749 1.12497,-0.125 2.12492,-0.43748 2.18743,-0.37499 2.06243,-0.49999 2.06243,-0.49998 1.99993,-0.56249 2.06244,-0.49998 1.87493,-0.68748 1.93744,-0.62498 1.87493,-0.68748 0.93747,-0.37499 0.99997,-0.31249 1.74994,-0.81248 0.87497,-0.43749 0.93747,-0.37499 1.74994,-0.87497 0.87497,-0.43749 0.93747,-0.37499 1.62495,-0.99997 1.62494,-0.93747 0.74998,-0.56249 0.81247,-0.49998 1.62494,-0.99997 1.49995,-1.12497 1.49995,-1.12497 0.68748,-0.62498 0.74998,-0.56248 1.49995,-1.12497 0.62497,-0.68748 0.68748,-0.62498 1.37496,-1.24996 0.62497,-0.68748 0.68748,-0.62498 1.37495,-1.31247 0.56249,-0.74997 0.62498,-0.68748 1.24995,-1.43746 1.18746,-1.49996 1.24996,-1.43746 1.06247,-1.62495 1.06246,-1.62495 0.99997,-1.68745 1.06246,-1.62496 0.93747,-1.74994 0.93747,-1.74995 0.87497,-1.81245 0.43748,-0.93747 0.49999,-0.87498 0.74997,-1.93744 0.37499,-0.99997 0.43748,-0.93747 0.74998,-1.99995 0.37499,-0.99997 0.43748,-0.93747 0.62498,-2.06244 0.31249,-1.06247 0.37499,-0.99997 0.62498,-2.12494 0.31249,-1.06247 0.37498,-0.99997 0.49999,-2.24993 0.49998,-2.24994 0.18749,-1.18746 0.25,-1.12497 0.49998,-2.24993 0.37499,-2.37493 0.37498,-2.37493 0.125,-1.24997 0.18749,-1.18746 0.37499,-2.43743 0.0625,-1.31246 0.12499,-1.24997 0.25,-2.56242 0.18749,-2.62492 0.24999,-2.56243 0,-1.37496 0.0625,-1.31246 0.125,-2.68742 0.0625,-2.74992 0.125,-2.68742 0,-463.673968 -5.68731,1.937444 -5.62481,1.874945 -5.62481,1.812447 -5.49982,1.749949 -10.93713,3.249905 -5.43732,1.562454 -5.31232,1.499957 -5.37482,1.37496 -5.24982,1.312461 -5.24983,1.249964 -5.18732,1.187465 -10.31216,2.124938 -10.06216,1.874945 -5.06233,0.749978 -4.93733,0.749979 -4.93734,0.624981 -4.81234,0.624982 -4.87483,0.499985 -4.74984,0.437488 -4.74984,0.374989 -4.68735,0.312491 -4.68734,0.187494 -4.62484,0.124996 -4.62485,0.0625 -4.49985,0.0625 -4.49985,-0.0625 -4.43735,-0.124997 -4.43735,-0.187494 -4.31236,-0.249993 -8.6872,-0.874974 -4.24986,-0.499986 -4.18736,-0.562483 -8.31222,-1.37496 -4.12486,-0.812477 -3.99987,-0.812476 -4.06236,-0.999971 -3.93737,-0.99997 -3.93737,-1.062469 -3.87487,-1.124968 -3.87487,-1.249963 -3.74987,-1.312462 -7.43725,-2.749919 -3.74988,-1.562455 -3.62488,-1.624952 -3.62487,-1.687451 -3.49989,-1.687451 -3.56238,-1.874945 -3.43738,-1.874945 -3.43739,-1.937444 -3.31238,-1.999941 -3.37489,-2.124938 -3.31239,-2.187437 -3.24989,-2.249934 -3.18739,-2.312432 -6.31229,-4.874858 -3.1249,-2.499927 -2.9999,-2.562425 -3.12489,2.562425 -3.1249,2.499927 -1.62494,1.187465 -1.56245,1.249964 -3.1249,2.437429 -3.24989,2.312432 -3.24989,2.249934 -1.68744,1.062469 -1.62495,1.124968 -3.31239,2.124938 -3.43738,1.999941 -1.74994,0.937473 -1.68744,0.999971 -3.49989,1.874945 -3.43738,1.874945 -1.81244,0.812476 -1.74994,0.874975 -1.81244,0.812476 -1.74994,0.874975 -3.62488,1.624952 -3.62488,1.562455 -3.81237,1.374959 -3.74988,1.37496 -1.93743,0.624982 -1.87494,0.68748 -3.81237,1.249963 -3.93737,1.124968 -3.87487,1.062469 -3.99986,0.99997 -3.93737,0.999971 -4.12486,0.812476 -2.06243,0.37499 -1.99994,0.437487 -4.12486,0.68748 -4.12486,0.68748 -4.24986,0.562483 -4.18736,0.499986 -2.18742,0.187494 -2.12493,0.249993 -4.24986,0.437487 -4.43735,0.249993 -2.24992,0.0625 -2.18743,0.124996 -4.49985,0.124997 -2.24992,0 -2.18743,0.0625 -2.31242,-0.0625 -2.24993,0 -2.31242,-0.0625 -2.24993,0 -4.62484,-0.124996 -4.62484,-0.187494 -4.74985,-0.312491 -4.74984,-0.374989 -2.43741,-0.249993 -2.37492,-0.187495 -4.81234,-0.499985 -4.93734,-0.624982 -4.87483,-0.624981 -4.93734,-0.749979 -4.93733,-0.749978 L 95.37181,61.873196 92.809396,61.37321 90.309479,60.935723 85.184651,59.873254 80.059823,58.810785 74.81,57.62332 l -5.187326,-1.249964 -2.68741,-0.68748 -2.624912,-0.624981 -5.249824,-1.37496 -5.437317,-1.499957 -5.37482,-1.562454 -5.499816,-1.624952 -5.437317,-1.624953 -5.562313,-1.749949 -2.812406,-0.937473 -2.749908,-0.874974 -5.624811,-1.874945 -2.812406,-0.999971 -2.749907,-0.937473 0,463.673966 0.0625,5.43734 0.187493,5.37484 0.31249,5.18735 0.562481,5.12485 0.249992,2.43743 0.374987,2.43743 0.812473,4.74986 0.937468,4.56236 0.499983,2.24994 0.624979,2.24993 1.187461,4.18738 1.312456,4.12488 1.437451,3.93739 1.687444,3.87488 0.812472,1.81245 0.937469,1.81245 1.937435,3.49989 2.062431,3.31241 1.062464,1.62495 1.18746,1.62495 2.312423,2.93742 2.437418,2.87491 2.562414,2.62493 2.812405,2.56242 1.374954,1.12497 1.49995,1.18746 3.062397,2.24994 3.187393,2.06244 1.624946,0.93747 1.749941,0.99997 3.437385,1.68745 3.56238,1.62496 3.687376,1.37496 3.937368,1.31246 1.937435,0.49998 2.062431,0.56249 4.18736,0.99997 4.312355,0.81247 2.187426,0.31249 2.312423,0.37499 5.624811,1.56246 5.749807,1.49995 11.374616,2.74992 5.62481,1.24997 5.74981,1.18746 5.74981,1.06247 5.7498,0.99997 5.62481,0.87498 5.74981,0.81247 5.62481,0.68748 5.74981,0.62498 11.37462,0.99997 5.7498,0.37499 5.74981,0.31249 5.68731,0.3125 5.56231,0.43748 5.43732,0.43749 5.31232,0.56248 5.12483,0.56249 5.06233,0.68748 4.87484,0.68748 4.81234,0.87497 4.56234,0.81248 4.49985,0.93747 4.31236,0.93747 4.24986,1.12497 4.06236,1.06247 3.93737,1.18746 3.81237,1.24997 3.68738,1.37496 3.43738,1.31246 3.43738,1.43746 3.1874,1.49995 3.18739,1.62496 2.9374,1.56245 2.87491,1.68745 2.68741,1.74995 2.62491,1.87495 2.37492,1.81244 2.31242,1.93745 2.12493,1.99994 2.06243,2.12494 1.81244,2.12493 1.81244,2.24994 1.56245,2.24993 1.56244,2.37493 1.43745,-2.37493 1.62495,-2.24993 1.68744,-2.24994 1.93744,-2.12493 1.99993,-2.12494 2.18743,-1.99994 2.31242,-1.93745 2.43742,-1.81244 2.56241,-1.87495 2.68741,-1.74995 2.81241,-1.68745 2.9999,-1.56245 3.06239,-1.62496 3.31239,-1.49995 3.37489,-1.43746 3.56238,-1.31246 3.62488,-1.37496 3.81237,-1.24997 3.93737,-1.18746 4.06236,-1.06247 4.18736,-1.12497 4.37486,-0.93747 4.43735,-0.93747 4.68734,-0.81248 4.68734,-0.87497 4.93734,-0.68748 4.99983,-0.68748 5.18732,-0.56249 5.31233,-0.56248 5.43731,-0.43749 5.56232,-0.43748 5.7498,-0.3125 z"
         style="fill:#ffffff;fill-opacity:1;fill-rule:evenodd;stroke:none"
         inkscape:connector-curvature="0" />
      <path
         id="path2995"
         d="m 448.10996,128.18376 -1.81244,-0.93747 -1.74994,-0.81248 -1.87493,-0.68748 -1.81244,-0.49999 -1.99994,-0.49998 -1.93743,-0.31249 -2.06243,-0.1875 -1.99994,-0.0625 -1.74994,0 -1.93743,0 -1.81244,0.1875 -3.56238,0.68748 -3.43739,0.99997 -1.68744,0.62498 -1.56245,0.81248 -2.49991,1.24996 -2.31243,1.49996 -2.24992,1.68745 -2.06243,1.99994 -1.24996,1.18747 -1.06246,1.31246 -1.99994,2.68742 -1.68744,2.81242 -1.31246,2.93741 -1.12496,3.06241 -0.74997,3.18741 -0.43749,3.3124 -0.12499,1.68745 0,1.81245 0,1.68745 0.12499,1.68745 0.125,1.62495 0.31249,1.68745 0.31249,1.56246 0.43748,1.62495 0.49999,1.49996 0.62497,1.56245 0.56249,1.37496 0.74997,1.43746 0.74998,1.37496 0.93746,1.43746 0.93747,1.31246 1.06247,1.31246 1.06246,1.24996 1.24996,1.31247 1.99993,1.87494 2.12493,1.68745 2.18743,1.49996 2.37492,1.31246 2.31242,1.06247 2.49992,0.93747 2.56241,0.68748 2.68741,0.56248 10.49965,0 1.62494,-0.31249 1.68745,-0.37498 1.56244,-0.49999 1.62495,-0.49999 1.49995,-0.68748 0.74997,-0.37498 0.37499,-0.1875 0.43749,-0.125 0.31249,-0.24999 0.37498,-0.18749 0.74998,-0.37499 1.49995,-0.81248 0,-17.1245 -1.24996,1.62495 -0.74997,0.74998 -0.37499,0.37499 -0.125,0.0625 -0.0625,0.125 -0.12499,0.24999 -1.62495,1.37496 -1.62494,1.24996 -1.74994,1.06247 -1.74995,0.87498 -1.87493,0.62498 -0.99997,0.24999 -0.93747,0.24999 -1.06246,0.125 -0.99997,0.18749 -0.56248,0 -0.49998,0.0625 -0.99997,0.0625 -2.18743,-0.125 -1.99993,-0.31249 -1.99993,-0.49998 -1.81244,-0.62498 -1.87494,-0.87498 -1.68744,-1.06247 -1.68744,-1.24996 -1.49995,-1.37496 -1.49995,-1.62495 -1.18746,-1.62496 -1.06247,-1.74995 -0.81247,-1.74994 -0.68748,-1.87495 -0.43748,-1.93744 -0.31249,-2.06244 -0.0625,-2.06244 0.0625,-2.18744 0.31249,-1.99994 0.43748,-1.99994 0.68748,-1.81245 0.81247,-1.87494 1.06247,-1.68746 1.18746,-1.68745 1.49995,-1.49995 1.49995,-1.49996 1.68744,-1.18746 1.68744,-1.06247 1.87494,-0.81248 1.81244,-0.68748 1.99993,-0.43749 1.99993,-0.31249 2.18743,-0.0625 2.06243,0.0625 2.06243,0.31249 1.93744,0.43749 1.87493,0.68748 1.74995,0.81248 1.74994,1.06247 1.62494,1.18746 1.62495,1.49996 1.43745,1.56245 1.24996,1.68745 0,-17.37449 -1.62495,-0.93747 z"
         style="fill:#b00000;fill-opacity:1;fill-rule:evenodd;stroke:none"
         inkscape:connector-curvature="0" />
      <path
         id="path2997"
         d="m 458.73461,147.2457 -0.74998,2.99991 -0.49998,2.99992 -0.31249,2.93741 -0.0625,1.43746 0.0625,1.49995 0.12499,2.74992 0.43749,2.81242 0.24999,1.31246 0.37499,1.37496 0.37499,1.31247 0.49998,1.37496 0.68748,2.31243 0.87497,2.24993 0.93747,2.06244 1.06246,1.99994 1.06246,1.74995 1.31246,1.68745 1.31246,1.56246 1.49995,1.43746 1.49995,1.18746 1.68744,1.12497 1.74994,0.93747 1.93743,0.93747 1.93744,0.68748 2.12493,0.56249 2.18743,0.43748 2.31242,0.31249 4.31235,0 1.43745,-0.24999 1.43746,-0.24999 1.37495,-0.31249 1.37495,-0.31249 1.24996,-0.49999 1.24996,-0.49998 0.24999,-0.1875 0.31249,-0.12499 0.62498,-0.25 0.24999,-0.18749 0.31249,-0.125 0.62498,-0.24999 0.99997,-0.74998 1.06246,-0.74998 0.1875,-0.24999 0.24999,-0.18749 0.49998,-0.37499 0.99997,-0.81248 0.87497,-0.93747 0.87497,-0.93747 0.74997,-1.06247 0.37499,-0.56249 0.43749,-0.49998 0,10.37469 13.37455,0 0,-67.12304 -13.37455,0 0,10.3747 -0.81248,-1.18746 -0.74997,-1.06247 -0.87497,-0.99997 -0.87497,-0.87498 -0.99997,-0.93747 -0.93747,-0.81248 -1.06246,-0.74997 -0.99997,-0.62499 -1.18746,-0.68748 -1.18746,-0.56248 -1.24996,-0.49999 -1.24996,-0.37498 -1.37495,-0.37499 -1.37495,-0.25 -1.43746,-0.24999 -1.43745,-0.125 -4.31235,0 -2.43742,0.25 -2.31242,0.43748 -2.18743,0.62499 -1.99993,0.81247 -1.99994,0.87498 -1.81243,1.06247 -1.68745,1.18746 -1.56245,1.43746 -1.56244,1.43746 -1.31246,1.68745 -1.31245,1.81245 -1.06247,1.99994 -1.06246,2.06244 -0.93747,2.31243 -0.81247,2.43743 -0.62498,2.62492 z m 16.99943,25.81175 -1.24996,-1.62495 -1.06247,-1.62496 -0.87497,-1.74995 -0.68747,-1.74995 -0.56249,-1.93744 -0.24999,-0.99997 -0.12499,-0.93747 -0.1875,-1.06247 -0.0625,-0.99997 -0.0625,-2.06244 0.0625,-2.18744 0.24999,-1.99994 0.37498,-1.99994 0.56249,-1.81245 0.68747,-1.87494 0.87497,-1.68745 1.06247,-1.68745 1.24996,-1.49996 1.24995,-1.49996 1.37496,-1.24996 1.43745,-1.06247 1.56245,-0.81248 1.56244,-0.68748 1.68745,-0.43748 1.68744,-0.31249 1.81244,-0.0625 1.74994,0.0625 1.68744,0.31249 1.62495,0.43748 1.62495,0.68748 1.49995,0.81248 1.43745,1.06247 1.37495,1.24996 1.37496,1.49996 0.99996,1.31246 0.93747,1.43746 0.81247,1.43746 0.68748,1.56245 0.56248,1.56246 0.43749,1.68745 0.31249,1.68745 0.31249,1.81244 0.0625,1.87495 -0.0625,1.87494 0,0.37499 -0.25,1.74995 -0.31249,1.74995 -0.24999,0.81248 -0.18749,0.87497 -0.18749,0.37499 -0.125,0.43749 -0.24999,0.87497 -0.37499,0.74998 -0.18749,0.37499 -0.125,0.43749 -0.43748,0.74998 -0.37499,0.81247 -0.49999,0.68748 -0.43748,0.74998 -0.18749,0.125 -0.125,0.18749 -0.24999,0.37499 -0.49998,0.74998 -1.37496,1.37496 -1.37495,1.24996 -0.74998,0.49999 -0.37498,0.24999 -0.1875,0.125 -0.12499,0.18749 -1.49995,0.87497 -1.62495,0.62499 -1.62495,0.49998 -0.87497,0.125 -0.24999,0 -0.12499,0 -0.0625,0.0625 -0.37499,0.12499 -1.74994,0.125 -1.81244,-0.125 -1.68744,-0.31249 -1.68745,-0.49998 -1.56244,-0.62499 -1.56245,-0.87497 -1.43745,-1.06247 -1.37496,-1.24996 -1.24995,-1.37496 z"
         style="fill:#b00000;fill-opacity:1;fill-rule:evenodd;stroke:none"
         inkscape:connector-curvature="0" />
      <path
         id="path2999"
         d="m 384.4871,100.37207 -1.68745,0.125 -1.49995,0.43748 -1.43745,0.74998 -1.18746,1.06247 -1.06246,1.18747 -0.68748,1.43745 -0.43748,1.43746 -0.125,1.68745 0,0.74998 0.125,0.81248 0.12499,0.74998 0.31249,0.81247 0.24999,0.62498 0.43749,0.68748 0.43748,0.62498 0.62498,0.68748 1.18746,0.99998 1.43745,0.74997 0.74998,0.25 0.74997,0.18749 0.81248,0.125 0.87497,0.0625 0.74997,-0.0625 0.81248,-0.125 0.74997,-0.18749 0.74997,-0.25 0.62498,-0.37499 0.68748,-0.37498 0.62498,-0.49999 0.68748,-0.49999 0.49998,-0.68748 0.49998,-0.62498 0.1875,-0.37499 0.24999,-0.31249 0.37499,-0.62498 0.24999,-0.81247 0.18749,-0.74998 0.125,-0.81248 0.0625,-0.74998 -0.0625,-0.87497 -0.125,-0.81248 -0.18749,-0.74998 -0.24999,-0.68748 -0.37499,-0.74997 -0.43749,-0.68748 -0.99996,-1.18747 -0.68748,-0.62498 -0.62498,-0.43749 -0.68748,-0.43749 -0.62498,-0.31249 -1.49994,-0.43748 -0.81248,-0.125 -0.74997,0 z"
         style="fill:#b00000;fill-opacity:1;fill-rule:evenodd;stroke:none"
         inkscape:connector-curvature="0" />
      <path
         id="path3001"
         d="m 353.48814,124.18387 -13.37455,0 0,67.12304 13.37455,0 0,-43.24873 0.49998,-1.56246 0.62498,-1.37496 0.68748,-1.31246 0.87497,-1.12497 0.81247,-1.06246 0.99997,-0.93748 1.06246,-0.81247 1.24996,-0.68748 1.18746,-0.68748 1.37495,-0.43749 1.37496,-0.37499 1.56244,-0.18749 1.56245,-0.1875 1.74994,0 1.74994,0.0625 1.93744,0.24999 0,-13.43711 -5.24982,0 -1.18746,0.0625 -1.06247,0.1875 -2.06243,0.49998 -1.93743,0.68748 -1.81244,0.99997 -1.68745,1.06247 -1.56244,1.37496 -1.43746,1.56246 -1.31245,1.81244 0,-8.24976 z"
         style="fill:#b00000;fill-opacity:1;fill-rule:evenodd;stroke:none"
         inkscape:connector-curvature="0" />
      <path
         id="path3003"
         d="m 391.11188,124.18387 -13.37456,0 0,67.12304 13.37456,0 0,-67.12304 z"
         style="fill:#b00000;fill-opacity:1;fill-rule:evenodd;stroke:none"
         inkscape:connector-curvature="0" />
      <path
         id="path3005"
         d="m 310.48958,97.747146 -13.74954,0 -13.43705,16.749514 14.18703,0 12.99956,-16.749514 z"
         style="fill:#b00000;fill-opacity:1;fill-rule:evenodd;stroke:none"
         inkscape:connector-curvature="0" />
      <path
         id="path3007"
         d="m 268.55349,133.93359 -1.24996,1.18747 -1.06246,1.31246 -1.99994,2.68742 -1.68744,2.81242 -1.31246,2.93741 -1.12496,3.06241 -0.74997,3.18741 -0.43749,3.3124 -0.12499,1.68745 0,1.81245 0,1.68745 0.12499,1.68745 0.125,1.62495 0.31249,1.68745 0.31249,1.56246 0.43748,1.62495 0.49998,1.49996 0.62498,1.56245 0.56248,1.37496 0.74998,1.43746 0.74997,1.37496 0.93747,1.43746 0.93747,1.31246 1.06247,1.31246 1.06246,1.24996 1.24996,1.31247 1.99993,1.87494 2.12493,1.68745 2.18743,1.49996 2.37492,1.31246 2.31242,1.06247 2.49992,0.93747 2.56241,0.68748 2.68741,0.56248 10.49965,0 1.24995,-0.31249 1.31246,-0.24999 1.24996,-0.37499 0.62498,-0.18749 0.68747,-0.125 1.18746,-0.49998 1.24996,-0.43749 2.37492,-1.06247 2.24993,-1.31246 1.06246,-0.74998 1.12496,-0.74998 0.99997,-0.87497 0.49998,-0.43749 0.56248,-0.37499 0.99997,-0.93747 0.49998,-0.49999 0.25,-0.24999 0.12499,-0.125 0.1875,-0.0625 0.87497,-0.99997 0.43748,-0.49999 0.49998,-0.43749 1.68745,-1.99994 1.43745,-2.12494 1.31246,-2.12494 -15.74948,0 -0.43748,0.25 -0.37499,0.31249 -0.74997,0.62498 -0.81248,0.49999 -0.74997,0.56248 -1.62495,0.87497 -0.87497,0.37499 -0.24999,0.0625 -0.18749,0.125 -0.37499,0.24999 -0.93747,0.24999 -0.87497,0.31249 -0.49998,0.0625 -0.43749,0.125 -0.87497,0.24999 -1.87493,0.24999 -0.99997,0.0625 -0.49998,0 -0.25,0 -0.12499,0 -0.0625,0.0625 -2.18743,-0.125 -1.99993,-0.31249 -1.99993,-0.49998 -1.81244,-0.62498 -1.87494,-0.87498 -1.68744,-1.06247 -1.68745,-1.24996 -1.49994,-1.37496 -0.99997,-1.06247 -0.87497,-0.99997 -0.81247,-1.12497 -0.62498,-1.06247 -0.68748,-1.18746 -0.49998,-1.12497 -0.49999,-1.18747 -0.31249,-1.18746 52.99822,0 0.31249,-2.87492 0.0625,-1.49995 0,-0.74998 0,-0.37499 0,-0.18749 0.0625,-0.125 -0.0625,-1.68745 -0.12499,-1.62495 -0.37499,-3.18741 -0.62498,-2.49993 -0.68748,-2.37493 -0.93747,-2.31243 -1.06246,-2.18744 -1.31246,-2.18743 -1.43745,-2.06244 -1.62494,-1.99994 -1.74994,-1.87495 -1.87494,-1.74995 -1.87494,-1.49996 -0.99996,-0.74997 -0.93747,-0.62499 -0.99997,-0.62498 -0.93747,-0.49998 -1.81244,-0.93747 -1.74994,-0.81248 -1.87494,-0.68748 -1.81244,-0.49999 -1.99993,-0.49998 -1.93743,-0.31249 -2.06243,-0.1875 -1.99994,-0.0625 -1.74994,0 -1.93743,0 -1.81244,0.1875 -3.56238,0.68748 -3.43739,0.99997 -1.68744,0.62498 -1.56245,0.81248 -2.49991,1.24996 -2.31243,1.49996 -2.24992,1.68745 -2.06243,1.99994 z m 39.06119,9.31223 1.62494,1.81245 1.49995,2.06243 1.12496,2.06244 0.49999,1.12497 0.43748,1.18747 -39.74866,0.24999 0.81247,-2.31243 1.12496,-2.18744 1.43745,-2.06244 1.74995,-1.93744 1.49994,-1.49996 1.68745,-1.18746 1.68744,-1.06247 1.87494,-0.81248 1.81244,-0.68748 1.99993,-0.43749 1.99993,-0.31249 2.18743,-0.0625 2.06243,0.0625 2.06243,0.31249 1.93744,0.43749 1.87493,0.68748 1.74995,0.81248 1.74994,1.06247 1.62494,1.18746 1.62495,1.49996 z"
         style="fill:#b00000;fill-opacity:1;fill-rule:evenodd;stroke:none"
         inkscape:connector-curvature="0" />
      <path
         id="path3009"
         d="m 251.05408,148.43317 -0.125,-2.56243 -0.125,-1.24996 -0.0625,-1.12497 -0.43749,-2.31243 -0.43748,-2.06244 -0.37499,-1.06247 -0.31249,-0.93747 -0.81247,-1.81245 -0.93747,-1.68745 -1.06247,-1.56246 -0.68747,-0.81247 -0.62498,-0.68748 -1.31246,-1.31246 -1.56245,-1.18747 -1.62494,-1.06247 -1.81244,-0.93747 -0.99997,-0.43749 -0.93747,-0.31249 -2.12493,-0.68748 -2.18742,-0.43749 -5.9373,0 -2.68741,0.43749 -1.24996,0.31249 -1.12496,0.43749 -2.18743,0.99997 -1.93743,1.31246 -1.81244,1.49996 -0.81248,0.81247 -0.68747,0.99998 -1.31246,2.06244 -1.06246,2.37493 -0.37499,0.24999 -0.24999,0.18749 -0.31249,0.125 -0.24999,0.0625 -0.25,-0.0625 -0.24999,-0.125 -0.49998,-0.49998 -0.68748,-1.24997 -0.62498,-1.12496 -0.74997,-1.12497 -0.68748,-0.99997 -0.87497,-0.99997 -0.81247,-0.81248 -0.93747,-0.81247 -0.93747,-0.68748 -1.06246,-0.68748 -1.06247,-0.56249 -1.18746,-0.56248 -1.12496,-0.43749 -1.31246,-0.43749 -1.24995,-0.31249 -1.37496,-0.24999 -1.37495,-0.125 -3.31239,0 -1.37495,0 -1.24996,0.125 -2.37492,0.43749 -1.18746,0.24999 -1.06247,0.37499 -1.06246,0.37499 -0.93747,0.49998 -0.99997,0.43749 -0.87497,0.56249 -1.68744,1.24996 -1.56245,1.43746 -1.31245,1.74995 0,-7.49979 -13.37455,0 0,67.12304 13.37455,0 0,-44.3737 1.06246,-2.37493 1.18746,-2.06244 1.31246,-1.74995 1.56244,-1.43746 1.56245,-1.18746 0.81247,-0.49999 0.93747,-0.31249 1.81244,-0.56248 2.06243,-0.24999 1.43746,0 1.37495,0.18749 1.31245,0.24999 1.24996,0.43749 1.06247,0.37499 1.06246,0.56248 0.93747,0.62498 0.87497,0.74998 0.74998,0.74998 0.68747,0.87497 0.56248,0.93748 0.49999,1.12496 0.37498,1.06247 0.31249,1.24997 0.1875,1.31246 0.18749,1.43746 0,42.87374 13.37455,0 0,-42.87374 0.24999,-1.49996 0.37499,-1.31246 0.37499,-1.31246 0.49998,-1.12497 0.49999,-1.06247 0.62497,-0.93747 0.68748,-0.87498 0.81247,-0.68748 0.74998,-0.68748 0.87497,-0.56248 0.87497,-0.49999 1.06246,-0.31249 0.99997,-0.31249 1.12496,-0.0625 1.18746,-0.0625 1.31246,0.12499 1.43745,0 1.37495,0.1875 1.31246,0.24999 1.18746,0.37499 1.06247,0.37499 0.99996,0.49998 0.93747,0.56249 0.87497,0.74998 0.68748,0.68748 0.62498,0.81247 0.56248,0.87498 0.43748,1.06247 0.31249,0.99997 0.24999,1.18746 0.1875,1.18747 0.12499,1.37496 0,42.87374 13.37456,0 0,-42.87374 z"
         style="fill:#b00000;fill-opacity:1;fill-rule:evenodd;stroke:none"
         inkscape:connector-curvature="0" />
      <path
         id="path3011"
         d="m 140.87027,191.30691 15.062,0 -34.74884,-106.309391 -15.99946,0 -34.748834,106.309391 15.061995,0 7.74974,-23.6868 39.873659,0 7.74974,23.6868 z m -43.43604,-36.56143 15.74947,-48.12359 15.74947,48.12359 -31.49894,0 z"
         style="fill:#b00000;fill-opacity:1;fill-rule:evenodd;stroke:none"
         inkscape:connector-curvature="0" />
      <path
         id="path3013"
         d="m 402.11151,295.55387 33.37388,-15.68704 -37.24875,9.81221 -1.81244,0.37499 -1.68745,0.43749 -1.56244,0.49998 -1.31246,0.62499 -1.31246,0.56248 -1.06246,0.68748 -1.06246,0.68748 -0.81248,0.81248 -0.81247,0.74997 -0.68748,0.87498 -0.56248,0.93747 -0.31249,0.99997 -0.31249,0.99997 -0.0625,1.06247 -0.0625,1.12497 0.18749,1.24996 0.49998,19.12444 -25.62414,16.37453 -7.31225,-8.37476 -6.87477,-8.24976 -6.56228,-8.24976 -6.18729,-8.12476 -0.56248,-1.31246 -0.56248,-1.18747 -0.62498,-1.12496 -0.62498,-0.99998 -0.74998,-0.99997 -0.74997,-0.87497 -0.87497,-0.87498 -0.87497,-0.68747 -0.99997,-0.74998 -0.99997,-0.56249 -1.12496,-0.56248 -1.06246,-0.37499 -1.24996,-0.43749 -1.24996,-0.24999 -1.31245,-0.24999 -1.31246,-0.125 -1.56245,-0.18749 -1.43745,-0.25 -1.43745,-0.31249 -1.24996,-0.37499 -1.24996,-0.49998 -1.12496,-0.56248 -1.12496,-0.68748 -0.99997,-0.68748 -0.43748,-0.37499 -0.31249,-0.31249 -0.56249,-0.62499 -0.43748,-0.62498 -0.18749,-0.62498 -0.1875,-0.62498 0.0625,-0.62498 0.18749,-0.62498 0.37499,-0.62499 0.18749,-0.99997 0.43749,-0.74998 0.56248,-0.56248 0.74998,-0.31249 0.81247,-0.24999 1.06246,0.0625 1.18746,0.18749 1.31246,0.43749 11.43712,3.12491 -3.49989,-8.06227 0.0625,-3.62489 0.37499,-3.4999 0.24999,-1.81245 0.37499,-1.74995 0.87497,-3.49989 4.74984,-2.37493 -3.74988,-4.93736 0.125,-1.81245 0,-0.99997 0,-0.49998 0,-0.25 0,-0.12499 0.0625,-0.0625 0,-2.06244 0,-2.18744 -0.125,-2.37493 -0.12499,-1.24996 -0.0625,-0.62498 0,-0.56249 -0.24999,-2.56242 -0.24999,-2.68742 4.93733,-7.74978 -9.43718,1.81245 -2.68741,-1.31246 -2.56242,-1.12497 -2.49991,-0.93747 -2.43742,-0.74998 -2.43742,-0.62498 -2.31242,-0.43749 -2.31242,-0.31249 -2.18743,-0.125 -2.24993,-0.0625 -2.12492,0.18749 -2.06244,0.31249 -1.99993,0.49999 -1.99993,0.62498 -1.87494,0.81247 -1.81244,0.93748 -1.74994,1.12496 -1.56245,1.62496 -1.37495,1.74995 -1.18746,1.74994 -0.99997,1.81245 -0.93747,1.81245 -0.68747,1.87494 -0.56248,1.93745 -0.37499,1.99994 -0.31249,1.99994 -0.0625,2.06244 0.0625,2.06244 0.24999,2.18744 0.37499,2.12493 0.56248,2.24994 0.68748,2.24993 0.87497,2.37493 0.12499,0.93748 0.1875,0.99997 0.24999,1.87494 0.12499,1.81245 0.125,1.74995 0,1.62495 -0.0625,0.74998 0,0.81248 -0.18749,1.49995 -0.125,0.68748 -0.0625,0.74998 -0.37499,1.31246 -0.37499,1.24997 -0.49998,1.18746 -0.56248,1.12497 -0.68748,0.99997 -0.74998,0.99997 -0.81247,0.87497 -0.87497,0.81248 -0.81247,0.49999 -0.74998,0.56248 -1.68744,1.12497 -1.81244,1.12496 -1.87494,1.12497 -2.06243,1.12497 -2.06243,1.12496 -2.18742,1.12497 -2.31243,1.12497 -1.81244,0.62498 -1.68744,0.81248 -3.31239,1.87494 -3.18739,2.12494 -2.9374,2.49993 -1.49995,1.31246 -1.37496,1.43746 -1.37495,1.49995 -1.24996,1.62496 -1.31245,1.62495 -1.18746,1.81245 -2.31243,3.81238 -3.24989,4.18738 -3.12489,4.31238 -6.1248,8.68724 -3.06239,4.37487 -2.93741,4.49987 -2.9374,4.49987 -2.8124,4.62487 -1.12497,1.12496 -0.74997,1.18747 -0.56248,1.18746 -0.24999,1.24997 -0.0625,1.24996 0.24999,1.31246 0.49998,1.37496 0.81248,1.37496 0.99996,2.43743 1.06247,2.37493 1.12496,2.81242 1.24996,2.68742 1.12496,2.56243 0.56248,1.24996 0.62498,1.24996 0.49998,1.12497 0.25,0.56248 0.31248,0.62499 1.12497,2.18743 0.49998,0.99997 0.24999,0.49999 0.125,0.24999 0.18749,0.31249 1.12496,1.99994 0.43749,0.87498 0.49998,0.87497 0.99997,1.68745 0.43748,0.74998 0.49999,0.81248 0.99996,1.43746 0.87497,1.18746 0.1875,0.24999 0.24999,0.3125 0.49998,0.62498 0.87497,0.99997 0.87497,0.93747 7.06227,11.99965 0.68747,1.37496 0.56248,1.37496 0.1875,0.62498 0,0.125 0,0.0625 0.0625,0.12499 0.12499,0.37499 0.125,0.62498 0.12499,0.68748 0,0.56249 0,0.62498 -0.0625,0.24999 0,0.31249 0,0.62498 -0.125,0.49999 -0.125,0.56248 -0.37498,1.12497 -2.49992,1.56245 -2.62491,-1.43745 -2.62491,-1.62496 -2.62491,-1.87494 -2.62492,-2.06244 -2.62491,-2.37493 -2.62491,-2.56243 -2.62491,-2.81241 -2.49992,-2.99992 -2.9999,-3.68739 -2.9999,-3.3124 -1.56244,-1.56246 -1.49995,-1.31246 -2.9999,-2.43743 -1.62495,-1.12497 -1.56245,-0.93747 -1.62494,-0.93747 -1.49995,-0.68748 -1.62495,-0.68748 -1.56245,-0.56248 -3.12489,-0.81248 -1.68744,-0.31249 -1.62495,-0.1875 -3.24989,-0.0625 -1.68744,0.0625 -1.62495,0.3125 -1.68744,0.31249 -1.62495,0.49998 -1.74994,0.49999 -1.68744,0.68748 -1.74994,0.68748 -1.68745,0.87497 -1.74994,0.93747 -1.74994,1.06247 -1.74994,1.12497 -1.68744,1.31246 -1.99994,1.93745 -1.68744,2.18743 -1.43745,2.31243 -1.12496,2.43743 -0.87498,2.56243 -0.37498,1.31246 -0.24999,1.43746 -0.37499,2.81242 0,3.06241 0.12499,3.06241 0.49999,3.3124 0.74997,3.4374 0.99997,3.5624 1.24996,3.68739 1.49995,3.81239 1.74994,3.93738 2.12493,4.18738 1.99993,4.49987 2.37492,4.62486 2.62491,4.49987 2.87491,4.62487 -57.06059,36.31144 1.87494,3.1874 57.81056,-35.62396 2.06243,2.99992 2.31242,3.06241 2.43742,2.99991 2.56241,3.12491 0.74998,1.18746 0.74997,1.18747 0.62498,1.06247 0.24999,0.49998 0.125,0.25 0.0625,0.12499 0.12499,0.1875 0,0.0625 0.0625,0.125 0.125,0.24999 0.24999,0.49999 0.37498,0.87497 0.31249,0.74998 0.25,0.74998 0,0.24999 0,0.125 0,0.0625 0.0625,0.12499 0,0.25 0,0.12499 0,0.0625 0.0625,0.125 -0.0625,0 0,0.0625 0,0.12499 0,0.24999 -0.12499,0.43749 -0.24999,0.31249 -0.25,0.24999 -0.37498,0.125 -0.43749,0.125 -0.87497,-0.125 -0.93747,-0.125 -1.06246,-0.24999 -1.06247,-0.24999 -1.24995,-0.37499 -1.24996,-0.43749 -1.37496,-0.49998 -1.43745,-0.49999 -0.68747,-0.37499 -0.56249,-0.24999 -0.99996,-0.43749 -0.87497,-0.31249 -0.62498,-0.0625 -0.49998,-0.0625 -0.31249,0.18749 -0.125,0.31249 0,0.1875 0.125,0.31249 0.93746,0.93747 1.12497,0.99997 1.12496,0.93747 1.24996,0.99997 1.24995,0.87498 1.37496,0.93747 2.9999,1.87495 1.56245,0.81247 1.68744,0.87498 3.56238,1.74995 3.87487,1.62495 4.18736,1.62495 1.12496,0.43749 1.12496,0.31249 0.99997,0.18749 0.18749,0 0.25,0.0625 0.49998,0.125 0.37499,-0.0625 0.43748,0 0.74998,-0.0625 0.31249,-0.12499 0.37498,-0.0625 0.62498,-0.31249 0.43749,-0.49999 0.37498,-0.56248 0.125,-0.37499 0,-0.125 0.0625,-0.0625 0.12499,-0.12499 0.25,-0.74998 0.12499,-0.93747 0.0625,-0.99997 -0.0625,-1.12497 -0.12499,-1.18747 -1.49995,-26.56172 -0.37499,-0.37499 -0.31249,-0.125 -0.31249,0 -0.24999,0.31249 -0.24999,0.43749 -0.25,0.68748 -0.24999,0.81248 -0.12499,1.06247 -3.68738,12.18714 -0.12499,0 -0.0625,0 0,0.0625 -0.125,0.125 -0.12499,0 -0.0625,0 0,0.0625 -0.125,0.125 -0.37499,0.0625 -0.37498,0 -0.49999,-0.125 -0.49998,-0.12499 -0.56248,-0.25 -0.49998,-0.31249 -0.68748,-0.49998 -0.62498,-0.49999 -0.74997,-0.62498 -0.37499,-0.37499 -0.125,-0.125 -0.0625,-0.0625 -0.12499,-0.125 -0.87497,-0.81248 -0.24999,-0.24999 -0.125,-0.125 -0.0625,-0.0625 -0.37498,-0.37499 -0.87498,-0.93748 -0.87497,-0.99997 -2.9374,-3.12491 -2.68741,-3.06241 -2.56241,-3.1249 -2.43742,-3.12491 54.49817,-33.62402 2.12493,0.81247 2.12493,0.68748 2.18743,0.49999 2.24992,0.43749 2.24992,0.18749 2.24993,0.125 2.24992,-0.125 2.37492,-0.18749 0.0625,1.99994 0.1875,2.06244 0.43748,4.06238 0.56248,3.99988 0.31249,1.93745 0.43749,1.99994 0.81247,3.81239 1.06246,3.74989 1.18746,3.68739 1.31246,3.68739 7.06226,21.43688 0.31249,2.12493 0.24999,2.12494 0,1.99994 -0.0625,1.99995 -0.1875,0.87497 -0.12499,0.93747 -0.1875,0.87498 -0.12499,0.43748 -0.0625,0.49999 -0.18749,0.37499 -0.125,0.43749 -0.31249,0.87497 -0.37499,0.81248 -0.31249,0.87497 -5.31232,4.68736 -2.06243,1.62496 -1.87494,1.74995 -1.87493,1.81244 -1.74994,1.93745 -1.74995,1.93744 -1.56244,2.12494 -1.56245,2.12494 -1.37495,2.31243 -1.43746,2.24993 -1.24995,2.43743 -1.24996,2.43743 -1.06247,2.56243 -1.12496,2.56242 -0.93747,2.74992 -0.93747,2.74992 -0.74997,2.93741 -0.81247,2.87492 -0.62498,2.99991 -0.99997,2.12494 -0.99997,2.06244 -0.18749,0.18749 -0.125,0.25 -0.24999,0.49998 -0.49998,0.99997 -0.99997,1.93745 -1.12496,1.81244 -0.99997,1.74995 -1.12496,1.62496 -0.56248,0.74997 -0.49998,0.81248 -0.62498,0.68748 -0.56248,0.74998 -1.12496,1.37496 -1.18746,1.24996 -1.12497,1.24997 -1.24995,1.06246 -0.62498,0.49999 -0.31249,0.24999 -0.24999,0.31249 -1.24996,0.93748 -1.18746,0.87497 -2.12493,1.31246 -1.74994,1.37496 -1.43745,1.43746 -1.06247,1.49996 -0.81247,1.49995 -0.43749,1.56246 -0.12499,1.62495 0.31249,1.68745 0.68747,1.74995 0.93747,1.62495 0.93747,1.43746 1.18746,1.31246 1.18746,1.06247 1.43745,0.99997 0.68748,0.37499 0.81247,0.37499 1.68745,0.62498 1.06246,0.68748 1.12496,0.81248 2.18743,1.81244 1.93743,1.93745 1.93744,2.18743 1.68744,2.31244 0.81247,1.24996 0.81248,1.37496 0.68747,1.31246 0.74998,1.43746 1.31246,3.06241 0.49998,0.93747 0.68748,0.87498 0.74997,0.81247 0.87497,0.81248 0.87497,0.62498 1.06247,0.62498 1.12496,0.49999 1.24996,0.49998 1.24995,0.31249 1.37496,0.3125 1.43745,0.18749 1.62495,0.18749 1.62494,0.0625 1.74994,0 1.81244,-0.0625 1.99993,-0.12499 0.81248,-0.125 0.37498,-0.0625 0.43749,0 0.68748,-0.12499 0.62498,-0.0625 0.18749,-0.125 0.24999,-0.0625 0.43749,-0.12499 0.31249,-0.24999 0.24999,-0.1875 0.0625,-0.37499 0,-0.24999 -0.0625,-0.37499 -0.125,-0.31249 -0.18749,-0.24999 -0.125,-0.1875 -0.37499,-0.37499 -0.43748,-0.49998 -0.49998,-0.43749 -1.18746,-0.37499 -1.06247,-0.43749 -1.06246,-0.62498 -0.93747,-0.68748 -0.93747,-0.93747 -0.87497,-0.93747 -0.81247,-1.18747 -0.68748,-1.18746 -4.56235,-8.18726 -1.18746,-2.87492 -0.87497,-2.74992 -0.74997,-2.68742 -0.49999,-2.56243 -0.37498,-2.56242 -0.125,-2.43743 0,-2.43743 0.31249,-2.31243 0.37499,-2.37493 0.62498,-2.24994 0.74997,-2.18743 1.06247,-2.06244 1.18746,-2.06244 1.43745,-1.93745 1.56245,-1.93744 1.81243,-1.81245 14.06203,-17.62448 28.49905,-28.37417 0.49998,-0.62499 0.49998,-0.56248 0.1875,-0.37499 0.24999,-0.31249 0.49998,-0.62498 0.31249,-0.74998 0.37499,-0.68748 0.31249,-0.74998 0.37499,-0.68748 0.43748,-1.62495 0.125,-0.87497 0,-0.25 0,-0.12499 0.0625,-0.0625 0.125,-0.37499 0,-0.49999 0,-0.24999 0,-0.125 0.0625,-0.0625 0.12499,-0.87498 0,-0.93747 0.0625,-0.87497 2.06243,-39.62385 -0.12499,-1.12497 0.0625,-0.93747 0.0625,-0.93747 0.1875,-0.74998 0.18749,-0.74998 0.31249,-0.56248 0.37499,-0.56248 0.49998,-0.31249 0.43749,-0.37499 0.62497,-0.1875 0.62498,-0.18749 0.74998,0 0.74997,0 0.87497,0.18749 0.93747,0.24999 1.06247,0.43749 34.56134,12.37464 0.68747,0.0625 0.62498,0.125 0.56248,0.12499 0.49999,0.24999 0.74997,0.43749 0.49999,0.68748 0.12499,0.68748 -0.12499,0.81248 -0.49999,0.93747 -0.74997,1.06247 -1.06247,1.62495 -0.87497,1.74995 -0.81247,1.74995 -0.62498,1.93744 -0.68748,1.93745 -0.49998,2.06244 -0.43748,2.06244 -0.25,2.24993 -0.31249,2.18744 -0.12499,2.31243 -0.0625,2.31243 0.125,2.49993 0.12499,2.49993 0.31249,2.62492 0.31249,2.62492 0.49998,2.74992 0.0625,2.12494 -0.0625,0.49999 0,0.56248 0,1.12497 -0.24999,2.12493 -0.37498,2.24994 -0.62498,2.12494 -0.68748,2.12493 -0.93747,2.12494 -0.99997,2.12494 -0.99996,1.49996 -1.06247,1.62495 -1.12496,1.49996 -1.18746,1.62495 -0.87497,0.93747 -0.74997,0.99997 -0.68748,0.93747 -0.56248,0.99997 -1.06247,1.74995 -0.43748,0.81248 -0.31249,0.87497 -0.62498,1.49996 -0.24999,0.68748 -0.0625,0.74998 -0.125,0.62498 0,0.68748 0.25,1.24996 0.12499,0.49999 0.24999,0.56248 0.74998,0.99997 0.37499,0.37499 0.49998,0.43749 0.56248,0.37499 0.68748,0.43749 2.37492,1.24996 2.37492,1.49996 2.37492,1.81244 2.37492,2.12494 2.37492,2.37493 2.37492,2.62492 2.37492,2.93742 2.37492,3.2499 0.37499,0.74998 0.49998,0.81248 1.06246,1.37496 1.18746,1.12497 1.43746,0.93747 0.68747,0.31249 0.81248,0.31249 0.81247,0.18749 0.93747,0.25 0.87497,0.12499 0.99996,0.125 2.06243,0 6.49979,0 5.18732,-0.74998 0.93747,-0.49998 0.87497,-0.37499 0.74998,-0.37499 0.68747,-0.37499 0.49999,-0.37499 0.43748,-0.37499 0.31249,-0.37499 0.24999,-0.31249 0.0625,-0.37499 0,-0.31249 -0.18749,-0.31249 -0.1875,-0.24999 -0.37498,-0.31249 -0.43749,-0.25 -0.56248,-0.24999 -0.68748,-0.24999 -2.18742,-0.1875 -1.06247,-0.12499 -0.93747,-0.125 -1.81244,-0.43749 -1.56244,-0.56248 -1.43746,-0.81248 -0.68747,-0.43748 -0.56248,-0.43749 -1.06247,-1.06247 -0.81247,-1.18746 -4.93733,-7.1248 -1.24996,-3.3749 -0.93747,-3.1874 -0.68748,-3.12491 -0.37499,-2.99992 -0.12499,-2.99991 0.18749,-2.87491 0.49999,-2.81242 0.74997,-2.68742 11.43712,-33.31153 11.49961,-21.56187 0.62498,-1.43746 0.56248,-1.37496 0.43749,-1.37496 0.43748,-1.37496 0.1875,-1.37496 0.18749,-1.31246 0.0625,-1.37496 0,-1.24996 -0.1875,-1.37496 -0.24999,-1.24997 -0.31249,-1.24996 -0.43748,-1.24996 -0.56248,-1.24997 -0.62498,-1.24996 -0.68748,-1.24997 -0.81247,-1.12496 -4.24986,-4.12488 -4.49985,-3.99989 -4.74984,-3.99988 -4.93733,-3.99988 -2.62492,-2.06244 -2.62491,-1.99994 -5.43732,-3.99989 -5.7498,-3.99988 -5.87481,-3.99988 -7.74974,-4.99986 -3.99986,-2.49992 -4.06237,-2.49993 -1.06246,-0.62498 -0.93747,-0.68748 -0.87497,-0.81248 -0.68748,-0.81248 -0.68747,-0.99997 -0.49999,-1.06247 -0.43748,-1.12496 -0.24999,-1.18747 -0.31249,-1.37496 -0.0625,-1.43746 -0.0625,-1.49995 0.125,-1.56246 0.12499,-1.74994 0.31249,-1.74995 0.37499,-1.87495 0.56248,-1.93744 2.9374,-14.43708 30.81147,-18.99945 2.68741,2.37493 2.74991,2.31244 2.68741,2.24993 2.7499,2.18744 2.62492,2.06244 1.31245,0.99997 1.37496,1.06247 5.37482,3.87488 2.56241,1.74995 2.62491,1.74995 2.62491,1.68745 2.62492,1.62495 2.49991,1.49996 2.62491,1.43746 5.12483,2.74992 1.49995,0.74998 1.43745,0.74997 1.31246,0.74998 1.31245,0.74998 1.12497,0.74998 1.06246,0.74998 0.99997,0.74998 0.93747,0.87497 0.74997,0.74998 0.68748,0.81247 0.62498,0.74998 0.56248,0.87498 0.37499,0.74997 0.31249,0.87498 0.24999,0.87497 0.18749,0.87498 0.74998,7.12479 0.37498,1.68745 0.49999,1.56246 0.37498,1.37496 0.49999,1.24996 0.37498,0.99997 0,0.0625 0.0625,0.12499 0.125,0.25 0.24999,0.43748 0.37499,0.68748 0.49998,0.56249 0.37499,0.24999 0.37498,0.18749 0.37499,-0.0625 0.37499,-0.125 0.125,-0.24999 0.0625,-0.125 0.125,-0.0625 0.37499,-0.49998 0.37498,-0.74998 0.37499,-0.81248 0.18749,-6.7498 -0.0625,-0.93747 0.0625,-0.74998 0.125,-0.74998 0.24999,-0.56248 0.24999,-0.56249 0.37499,-0.37498 0.37499,-0.3125 0.49998,-0.18749 0.49999,-0.18749 0.62497,0 0.62498,0 0.74998,0.18749 0.74997,0.18749 0.87497,0.37499 0.93747,0.37499 1.06247,0.56249 8.37472,12.56213 0.24999,0.49998 0.12499,0.1875 0.1875,0.24999 0.0625,0.125 0.125,0.18749 0.24999,0.1875 0.125,0.0625 0.24999,-0.0625 0.125,-0.1875 0.0625,-0.12499 0.125,-0.0625 0,-0.43749 0.12499,-0.49998 0,-0.68748 0,-0.37499 0,-0.1875 0.0625,-0.12499 0,-0.93748 0,-0.93747 -0.0625,-1.12497 0,-1.18746 -0.18749,-1.37496 -0.24999,-1.37496 -0.31249,-1.37496 -0.37499,-1.24996 -0.49998,-1.37496 -0.56248,-1.24997 -1.37496,-2.49993 -0.87497,-1.24996 -0.93746,-1.24996 -0.99997,-1.24997 -1.06247,-1.12496 -1.18746,-1.24997 -1.24995,-1.12496 -2.74991,-2.18744 -2.9999,-1.56245 -2.8749,-1.74995 -2.9999,-1.93745 -2.87491,-2.12493 -2.9999,-2.37494 -2.8749,-2.56242 -2.9999,-2.81242 -2.8749,-2.99991 -6.93727,-6.8748 -6.62478,-6.8123 -6.49978,-6.8123 -6.12479,-6.74981 25.68663,-15.87453 15.18699,13.7496 0.74998,0.56248 0.81247,0.43749 0.87497,0.31249 0.93747,0.18749 0.93747,0.0625 1.06246,-0.0625 1.06247,-0.18749 1.12496,-0.1875 1.12496,-0.43748 1.18746,-0.49999 1.24996,-0.68748 1.31246,-0.68748 1.31245,-0.93747 1.43745,-0.93747 1.43746,-1.12497 1.49995,-1.18747 24.99916,-24.56178 -29.874,17.68698 -0.93747,0.56249 -0.87497,0.49998 -0.87497,0.43749 -0.81247,0.37499 -1.62495,0.49999 -1.49995,0.24999 -1.56245,-0.125 -1.43745,-0.37499 -0.74997,-0.31249 -0.62498,-0.37499 -0.62498,-0.43748 -0.62498,-0.49999 -0.93747,-1.37496 -0.49998,-1.31246 -0.24999,-1.37496 0.12499,-1.24997 0.37499,-1.31246 0.74998,-1.24996 0.99996,-1.24996 1.43745,-1.18747 60.74796,-39.68634 -66.68526,33.31153 -1.12496,0.37499 -0.93747,0.31249 -0.93747,0.18749 -0.81247,0.125 -0.81247,-0.0625 -0.62498,-0.0625 -0.62498,-0.24999 -0.49998,-0.31249 -0.56248,-0.49999 -0.37499,-0.56248 -0.37499,-0.68748 -0.24999,-0.74998 -0.24999,-0.93747 -0.125,-0.93747 -0.0625,-1.12497 0.0625,-1.18747 0,-2.06244 0.37499,-1.81244 0.49998,-1.68745 0.87497,-1.43746 0.43749,-0.74998 0.56248,-0.62498 1.31246,-1.12497 0.68747,-0.56248 0.81247,-0.43749 0.81248,-0.43749 0.93747,-0.31249 z m -168.86934,62.37318 -0.31249,-1.31246 -0.0625,-1.06247 0.0625,-0.99997 0.31249,-0.81248 0.37499,-0.81247 0.62498,-0.56249 0.74997,-0.43748 0.99997,-0.3125 1.68744,-1.24996 1.68745,-1.24996 1.62494,-1.31246 0.74998,-0.68748 0.81247,-0.62499 1.43745,-1.49995 1.43745,-1.49996 0.62498,-0.81247 0.68748,-0.74998 0.62498,-0.81248 0.68748,-0.74998 0.62497,-0.62498 0.62498,-0.37499 0.62498,-0.24999 0.62498,-0.0625 0.62498,0.0625 0.62498,0.24999 0.62498,0.37499 0.74997,0.62498 10.99963,21.49938 0.25,0.74997 0.12499,0.37499 0,0.0625 0.0625,0.125 0.125,0.24999 0.49998,1.62495 0.37499,1.87495 0.24999,1.87494 0.0625,1.87495 0,0.93747 0,0.99997 -0.125,0.87498 -0.125,0.93747 -0.31249,1.87494 -0.31248,0.87498 -0.25,0.93747 -0.62498,1.87495 -7.68724,11.24967 -0.37498,0.31249 -0.31249,0.37499 -0.62498,0.62498 -0.74998,0.43749 -0.62498,0.37499 -0.74997,0.12499 -0.74998,0.0625 -0.74997,-0.18749 -0.74998,-0.1875 -2.56241,-1.93744 -2.18743,-1.74995 -1.93743,-1.68745 -1.62495,-1.49996 -1.37495,-1.49995 -0.99997,-1.37496 -0.74997,-1.31247 -0.37499,-1.12496 -5.74981,-23.06183 z m 6.81227,62.99816 10.37466,-6.37481 -0.1875,3.56239 0,3.5624 -2.62491,0.125 -2.49992,-0.0625 -0.68747,-0.125 -0.62498,-0.0625 -1.24996,-0.12499 -2.49992,-0.49999 z m 78.62237,-56.87334 0.18749,-0.74998 0.24999,-0.68748 0.49998,-1.37496 0.99997,-2.81241 0.93747,-2.87492 0.99997,-2.87492 0.81247,-2.99991 0.87497,-2.99991 0.37499,-1.56246 0.43748,-1.49995 0.87497,-2.99991 0.1875,-1.24997 0.37498,-0.81247 0.43749,-0.49999 0.62498,-0.125 0.56248,0.125 0.74997,0.49999 0.81248,0.81247 0.99996,1.24997 4.87484,4.87485 1.18746,1.12497 1.24996,1.18747 2.49991,2.37493 -21.81176,13.87459 z m -154.36982,30.37412 2.8749,-1.87495 2.8749,-1.49996 2.87491,-1.18746 2.8749,-0.81248 1.37495,-0.37499 1.43746,-0.18749 2.8749,-0.1875 1.37495,0 1.43746,0.125 2.8749,0.56248 2.74991,0.74998 1.37495,0.49999 1.43745,0.62498 2.74991,1.43746 1.37495,0.87497 1.43746,0.99997 2.7499,2.06244 2.74991,2.49993 2.74991,2.74992 2.74991,3.18741 2.06243,2.81241 2.12493,2.68743 2.18742,2.49992 2.24993,2.37493 2.18742,2.06244 2.24993,1.93745 2.24992,1.74995 2.37492,1.62495 -51.56077,32.87404 -2.56241,-3.87489 -2.31242,-3.81239 -2.12493,-3.87488 -0.99997,-1.93745 -0.87497,-1.87494 -1.81244,-4.18738 -1.49995,-3.93739 -1.31245,-3.81238 -1.06247,-3.5624 -0.93747,-3.4374 -0.37498,-1.68745 -0.25,-1.56246 -0.43748,-3.1249 -0.18749,-2.87492 -0.125,-2.81242 0.18749,-2.56242 0.37499,-2.43743 0.24999,-1.18747 0.37499,-1.06247 0.31249,-1.12496 0.43748,-0.99997 1.06247,-1.87495 0.56248,-0.93747 0.68748,-0.81248 0.68747,-0.81248 0.81248,-0.68747 z"
         style="fill:#b00000;fill-opacity:1;fill-rule:evenodd;stroke:none"
         inkscape:connector-curvature="0" />
      <path
         id="path3015"
         d="m 388.73695,526.23464 0.0625,2.49992 0.125,1.18747 0.24999,1.24996 0.18749,1.12497 0.31249,1.18747 0.37499,1.12496 0.49998,1.18747 0.99997,2.12494 0.56248,0.99997 0.68748,1.06247 1.49995,1.99994 0.81247,0.93747 0.93747,0.99997 1.81244,1.62495 1.99993,1.49996 2.06243,1.24996 2.18743,1.06247 2.18743,0.74998 2.37492,0.62498 2.43741,0.37499 2.62492,0.125 2.49991,-0.125 0.56248,-0.125 0.62498,-0.0625 1.24996,-0.1875 1.12496,-0.31249 0.24999,-0.125 0.125,-0.0625 0.18749,0 0.62498,-0.125 1.12497,-0.37499 1.18746,-0.37499 2.12492,-1.06247 0.99997,-0.62498 1.06246,-0.62498 1.99994,-1.49996 0.18749,-0.24999 0.24999,-0.18749 0.49999,-0.37499 0.99996,-0.81248 0.81248,-0.99997 0.37498,-0.49999 0.1875,-0.24999 0.24999,-0.18749 1.49995,-1.99994 0.62498,-1.06247 0.62498,-0.99997 1.06246,-2.12494 0.37499,-1.18747 0.37498,-1.12496 0.125,-0.62499 0,-0.18749 0.0625,-0.125 0.12499,-0.24999 0.31249,-1.12497 0.1875,-1.24996 0.0625,-0.62498 0.12499,-0.56249 0.125,-2.49992 -0.125,-2.62493 -0.37499,-2.43743 -0.62498,-2.37493 -0.74997,-2.18743 -1.06246,-2.18744 -1.24996,-2.06244 -1.49995,-1.99994 -1.62495,-1.81245 -0.99996,-0.93747 -0.93747,-0.81248 -1.99994,-1.49995 -1.06246,-0.68748 -0.99997,-0.56249 -2.12492,-0.99997 -1.18746,-0.49998 -1.12497,-0.37499 -1.18746,-0.31249 -1.12496,-0.1875 -1.24996,-0.24999 -1.18746,-0.125 -2.49991,-0.0625 -2.62492,0.0625 -2.43741,0.37499 -2.37492,0.49999 -2.18743,0.87497 -2.18743,0.99997 -2.06243,1.24997 -1.99993,1.49995 -1.81244,1.74995 -1.74994,1.81245 -1.49995,1.99994 -1.24996,2.06244 -0.99997,2.18744 -0.87497,2.18743 -0.49998,2.37493 -0.37499,2.43743 -0.0625,2.62493 z"
         style="fill:#b00000;fill-opacity:1;fill-rule:evenodd;stroke:none"
         inkscape:connector-curvature="0" />
    </g>
  </g>
</svg>
