<?xml version="1.0" encoding="UTF-8" standalone="no"?>
<!-- Created with Inkscape (http://www.inkscape.org/) -->

<svg
   xmlns:dc="http://purl.org/dc/elements/1.1/"
   xmlns:cc="http://creativecommons.org/ns#"
   xmlns:rdf="http://www.w3.org/1999/02/22-rdf-syntax-ns#"
   xmlns:svg="http://www.w3.org/2000/svg"
   xmlns="http://www.w3.org/2000/svg"
   xmlns:xlink="http://www.w3.org/1999/xlink"
   xmlns:sodipodi="http://sodipodi.sourceforge.net/DTD/sodipodi-0.dtd"
   xmlns:inkscape="http://www.inkscape.org/namespaces/inkscape"
   width="150"
   height="200"
   id="svg59190"
   version="1.1"
   inkscape:version="0.48.4 r9939"
   sodipodi:docname="Envigado_F.C._logo.svg">
  <title
     id="title3222">Envigado FC logo</title>
  <defs
     id="defs59192">
    <clipPath
       clipPathUnits="userSpaceOnUse"
       id="clipPath65477">
      <path
         inkscape:connector-curvature="0"
         d="m 370.625,185.504 8.691,0 0,-6.425 -8.691,0 0,6.425 z"
         id="path65479" />
    </clipPath>
    <clipPath
       clipPathUnits="userSpaceOnUse"
       id="clipPath65481">
      <path
         inkscape:connector-curvature="0"
         d="m 374.969,179.079 c -2.492,0 -3.578,2.059 -3.549,2.684 0.027,0.626 -0.17,1.401 -0.795,2.421 l 0.926,1.255 c 0.57,-0.284 1.137,-0.427 1.683,-0.427 0.59,0 1.176,0.165 1.75,0.492 0.598,-0.323 1.17,-0.482 1.741,-0.482 0.535,0 1.082,0.139 1.662,0.424 l 0.929,-1.251 c -0.537,-0.805 -0.867,-1.554 -0.832,-2.353 0.026,-0.568 -1.023,-2.763 -3.515,-2.763"
         clip-rule="evenodd"
         id="path65483" />
    </clipPath>
    <mask
       maskUnits="userSpaceOnUse"
       x="0"
       y="0"
       width="1"
       height="1"
       id="mask65495">
      <g
         id="g65497">
        <g
           id="g65499">
          <g
             id="g65501">
            <g
               id="g65503">
              <path
                 inkscape:connector-curvature="0"
                 d="m -32768,32767 65535,0 0,-65534 -65535,0 0,65534 z"
                 style="fill:url(#linearGradient65489);stroke:none"
                 id="path65505" />
            </g>
          </g>
        </g>
      </g>
    </mask>
    <linearGradient
       x1="0"
       y1="0"
       x2="1"
       y2="0"
       gradientUnits="userSpaceOnUse"
       gradientTransform="matrix(0,6.4248047,6.4248047,0,374.9707,179.0791)"
       spreadMethod="pad"
       id="linearGradient65489">
      <stop
         style="stop-opacity:1;stop-color:#ffffff"
         offset="0"
         id="stop65491" />
      <stop
         style="stop-opacity:0;stop-color:#ffffff"
         offset="1"
         id="stop65493" />
    </linearGradient>
    <linearGradient
       x1="0"
       y1="0"
       x2="1"
       y2="0"
       gradientUnits="userSpaceOnUse"
       gradientTransform="matrix(0,6.4248047,6.4248047,0,374.9707,179.0791)"
       spreadMethod="pad"
       id="linearGradient65507">
      <stop
         style="stop-opacity:1;stop-color:#ffffff"
         offset="0"
         id="stop65509" />
      <stop
         style="stop-opacity:1;stop-color:#ffffff"
         offset="1"
         id="stop65511" />
    </linearGradient>
    <clipPath
       clipPathUnits="userSpaceOnUse"
       id="clipPath65417">
      <path
         inkscape:connector-curvature="0"
         d="m 369.458,186.273 10.654,0 0,-12.497 -10.654,0 0,12.497 z"
         id="path65419" />
    </clipPath>
    <clipPath
       clipPathUnits="userSpaceOnUse"
       id="clipPath65421">
      <path
         inkscape:connector-curvature="0"
         d="m 369.857,184.466 1.331,1.803 c 1.236,-0.739 2.388,-0.75 3.548,0.004 1.198,-0.723 2.244,-0.746 3.537,-0.003 l 1.338,-1.8 c -0.974,-1.377 -1.343,-2.444 -0.326,-3.935 1.104,-1.616 0.99,-2.699 0.32,-3.808 -0.253,-0.41 -0.931,-1.556 -2.828,-1.766 -0.529,-0.085 -1.769,-0.179 -2.035,-1.185 -0.467,1.105 -1.392,1.053 -2.125,1.182 -1.033,0.172 -1.885,0.738 -2.424,1.42 -1.009,1.357 -0.925,2.592 -0.072,4.139 0.336,0.607 1.344,1.505 -0.264,3.949"
         clip-rule="evenodd"
         id="path65423" />
    </clipPath>
    <mask
       maskUnits="userSpaceOnUse"
       x="0"
       y="0"
       width="1"
       height="1"
       id="mask65437">
      <g
         id="g65439">
        <g
           id="g65441">
          <g
             id="g65443">
            <g
               id="g65445">
              <path
                 inkscape:connector-curvature="0"
                 d="m -32768,32767 65535,0 0,-65534 -65535,0 0,65534 z"
                 style="fill:url(#linearGradient65429);stroke:none"
                 id="path65447" />
            </g>
          </g>
        </g>
      </g>
    </mask>
    <linearGradient
       x1="0"
       y1="0"
       x2="1"
       y2="0"
       gradientUnits="userSpaceOnUse"
       gradientTransform="matrix(0,12.49707,12.49707,0,374.78516,173.77637)"
       spreadMethod="pad"
       id="linearGradient65429">
      <stop
         style="stop-opacity:1;stop-color:#ffffff"
         offset="0"
         id="stop65431" />
      <stop
         style="stop-opacity:0;stop-color:#ffffff"
         offset="0.393936"
         id="stop65433" />
      <stop
         style="stop-opacity:0;stop-color:#ffffff"
         offset="1"
         id="stop65435" />
    </linearGradient>
    <linearGradient
       x1="0"
       y1="0"
       x2="1"
       y2="0"
       gradientUnits="userSpaceOnUse"
       gradientTransform="matrix(0,12.49707,12.49707,0,374.78516,173.77637)"
       spreadMethod="pad"
       id="linearGradient65449">
      <stop
         style="stop-opacity:1;stop-color:#262424"
         offset="0"
         id="stop65451" />
      <stop
         style="stop-opacity:1;stop-color:#262424"
         offset="1"
         id="stop65453" />
    </linearGradient>
    <linearGradient
       inkscape:collect="always"
       xlink:href="#linearGradient65449"
       id="linearGradient59415"
       gradientUnits="userSpaceOnUse"
       gradientTransform="matrix(0,12.49707,12.49707,0,374.78516,173.77637)"
       spreadMethod="pad"
       x1="0"
       y1="0"
       x2="1"
       y2="0" />
    <linearGradient
       inkscape:collect="always"
       xlink:href="#linearGradient65507"
       id="linearGradient59417"
       gradientUnits="userSpaceOnUse"
       gradientTransform="matrix(0,6.4248047,6.4248047,0,374.9707,179.0791)"
       spreadMethod="pad"
       x1="0"
       y1="0"
       x2="1"
       y2="0" />
    <linearGradient
       inkscape:collect="always"
       xlink:href="#linearGradient65449"
       id="linearGradient59601"
       gradientUnits="userSpaceOnUse"
       gradientTransform="matrix(0,12.49707,12.49707,0,374.78516,173.77637)"
       spreadMethod="pad"
       x1="0"
       y1="0"
       x2="1"
       y2="0" />
    <linearGradient
       inkscape:collect="always"
       xlink:href="#linearGradient65449"
       id="linearGradient59613"
       gradientUnits="userSpaceOnUse"
       gradientTransform="matrix(0,12.49707,12.49707,0,374.78516,173.77637)"
       spreadMethod="pad"
       x1="0"
       y1="0"
       x2="1"
       y2="0" />
    <linearGradient
       inkscape:collect="always"
       xlink:href="#linearGradient65449"
       id="linearGradient59623"
       gradientUnits="userSpaceOnUse"
       gradientTransform="matrix(0,12.49707,12.49707,0,374.78516,173.77637)"
       spreadMethod="pad"
       x1="0"
       y1="0"
       x2="1"
       y2="0" />
    <clipPath
       clipPathUnits="userSpaceOnUse"
       id="clipPath66437">
      <path
         inkscape:connector-curvature="0"
         d="m 370.145,243.669 11.289,0 0,-7.105 -11.289,0 0,7.105 z"
         id="path66439" />
    </clipPath>
    <clipPath
       clipPathUnits="userSpaceOnUse"
       id="clipPath66441">
      <path
         inkscape:connector-curvature="0"
         d="m 375.906,236.564 c -3.695,0 -4.66,3.532 -5.08,4.53 -0.199,0.467 -0.424,0.816 -0.681,1.059 l 1.353,1.466 c 0.522,-0.4 1.285,-0.636 2.094,-0.636 0.816,0 1.566,0.243 2.131,0.686 0.756,-0.542 1.562,-0.659 2.121,-0.659 0.81,0 1.619,0.248 2.129,0.643 l 1.461,-1.415 c -0.278,-0.438 -0.485,-0.804 -0.635,-1.201 -0.348,-0.793 -1.197,-4.473 -4.893,-4.473"
         clip-rule="evenodd"
         id="path66443" />
    </clipPath>
    <mask
       maskUnits="userSpaceOnUse"
       x="0"
       y="0"
       width="1"
       height="1"
       id="mask66455">
      <g
         id="g66457">
        <g
           id="g66459">
          <g
             id="g66461">
            <g
               id="g66463">
              <path
                 inkscape:connector-curvature="0"
                 d="m -32768,32767 65535,0 0,-65534 -65535,0 0,65534 z"
                 style="fill:url(#linearGradient66449);stroke:none"
                 id="path66465" />
            </g>
          </g>
        </g>
      </g>
    </mask>
    <linearGradient
       x1="0"
       y1="0"
       x2="1"
       y2="0"
       gradientUnits="userSpaceOnUse"
       gradientTransform="matrix(0,7.1044922,7.1044922,0,375.78906,236.56445)"
       spreadMethod="pad"
       id="linearGradient66449">
      <stop
         style="stop-opacity:1;stop-color:#ffffff"
         offset="0"
         id="stop66451" />
      <stop
         style="stop-opacity:0;stop-color:#ffffff"
         offset="1"
         id="stop66453" />
    </linearGradient>
    <linearGradient
       x1="0"
       y1="0"
       x2="1"
       y2="0"
       gradientUnits="userSpaceOnUse"
       gradientTransform="matrix(0,7.1044922,7.1044922,0,375.78906,236.56445)"
       spreadMethod="pad"
       id="linearGradient66467">
      <stop
         style="stop-opacity:1;stop-color:#ffffff"
         offset="0"
         id="stop66469" />
      <stop
         style="stop-opacity:1;stop-color:#ffffff"
         offset="1"
         id="stop66471" />
    </linearGradient>
    <clipPath
       clipPathUnits="userSpaceOnUse"
       id="clipPath66377">
      <path
         inkscape:connector-curvature="0"
         d="m 369.826,243.684 12.004,0 0,-12.137 -12.004,0 0,12.137 z"
         id="path66379" />
    </clipPath>
    <clipPath
       clipPathUnits="userSpaceOnUse"
       id="clipPath66381">
      <path
         inkscape:connector-curvature="0"
         d="m 375.895,231.547 c -0.301,0.272 -0.52,0.464 -0.739,0.573 -0.082,0.082 -0.164,0.136 -0.273,0.192 -0.192,0.108 -0.52,0.245 -0.766,0.272 -0.383,0.056 -0.681,0.056 -0.984,0.082 -1.639,0.109 -2.623,0.984 -3.061,2.324 -0.164,0.465 -0.191,0.903 -0.136,1.366 0.082,0.602 0.328,0.957 0.574,1.478 0.41,0.737 0.547,1.887 0.109,2.924 -0.164,0.383 -0.41,0.847 -0.793,1.121 l 1.641,1.777 c 0.902,-0.847 3.008,-1.066 4.236,0.028 1.477,-1.176 3.526,-0.711 4.264,0 l 1.722,-1.668 c -0.3,-0.465 -0.544,-0.875 -0.71,-1.313 -0.299,-0.682 -0.383,-1.366 -0.108,-2.213 0.108,-0.602 0.492,-0.876 0.654,-1.34 0.274,-0.656 0.358,-1.312 0.274,-1.886 -0.11,-0.547 -0.326,-1.012 -0.602,-1.45 -0.271,-0.355 -0.629,-0.627 -1.009,-0.82 -0.959,-0.437 -1.696,-0.383 -2.598,-0.601 -0.656,-0.137 -1.285,-0.492 -1.695,-0.846"
         clip-rule="evenodd"
         id="path66383" />
    </clipPath>
    <mask
       maskUnits="userSpaceOnUse"
       x="0"
       y="0"
       width="1"
       height="1"
       id="mask66397">
      <g
         id="g66399">
        <g
           id="g66401">
          <g
             id="g66403">
            <g
               id="g66405">
              <path
                 inkscape:connector-curvature="0"
                 d="m -32768,32767 65535,0 0,-65534 -65535,0 0,65534 z"
                 style="fill:url(#linearGradient66389);stroke:none"
                 id="path66407" />
            </g>
          </g>
        </g>
      </g>
    </mask>
    <linearGradient
       x1="0"
       y1="0"
       x2="1"
       y2="0"
       gradientUnits="userSpaceOnUse"
       gradientTransform="matrix(0,12.136719,12.136719,0,375.82812,231.54687)"
       spreadMethod="pad"
       id="linearGradient66389">
      <stop
         style="stop-opacity:1;stop-color:#ffffff"
         offset="0"
         id="stop66391" />
      <stop
         style="stop-opacity:0;stop-color:#ffffff"
         offset="0.393936"
         id="stop66393" />
      <stop
         style="stop-opacity:0;stop-color:#ffffff"
         offset="1"
         id="stop66395" />
    </linearGradient>
    <linearGradient
       x1="0"
       y1="0"
       x2="1"
       y2="0"
       gradientUnits="userSpaceOnUse"
       gradientTransform="matrix(0,12.136719,12.136719,0,375.82812,231.54687)"
       spreadMethod="pad"
       id="linearGradient66409">
      <stop
         style="stop-opacity:1;stop-color:#262424"
         offset="0"
         id="stop66411" />
      <stop
         style="stop-opacity:1;stop-color:#262424"
         offset="1"
         id="stop66413" />
    </linearGradient>
    <clipPath
       clipPathUnits="userSpaceOnUse"
       id="clipPath51351">
      <path
         inkscape:connector-curvature="0"
         d="m 180.598,225.004 11.672,0 0,-7.758 -11.672,0 0,7.758 z"
         id="path51353" />
    </clipPath>
    <clipPath
       clipPathUnits="userSpaceOnUse"
       id="clipPath51355">
      <path
         inkscape:connector-curvature="0"
         d="m 186.432,217.246 c -3.596,0 -4.905,3.289 -4.907,3.571 -0.002,0.277 -0.05,0.578 -0.173,0.916 -0.129,0.345 -0.338,0.73 -0.659,1.167 l -0.095,0.131 1.523,1.973 0.164,-0.087 c 0.389,-0.208 0.752,-0.364 1.096,-0.468 0.334,-0.1 0.654,-0.148 0.967,-0.148 0.32,0 0.636,0.053 0.959,0.155 0.33,0.103 0.664,0.261 1.017,0.468 l 0.108,0.062 0.109,-0.062 c 0.355,-0.207 0.689,-0.365 1.018,-0.468 0.322,-0.102 0.638,-0.155 0.959,-0.155 0.314,0 0.632,0.048 0.968,0.148 0.344,0.104 0.707,0.26 1.096,0.468 l 0.162,0.087 1.526,-1.973 -0.096,-0.131 c -0.322,-0.437 -0.529,-0.82 -0.658,-1.167 -0.123,-0.338 -0.172,-0.639 -0.174,-0.916 -0.002,-0.282 -1.313,-3.571 -4.91,-3.571"
         id="path51357" />
    </clipPath>
    <mask
       maskUnits="userSpaceOnUse"
       x="0"
       y="0"
       width="1"
       height="1"
       id="mask51369">
      <g
         id="g51371">
        <g
           id="g51373">
          <g
             id="g51375">
            <g
               id="g51377">
              <path
                 inkscape:connector-curvature="0"
                 d="m -32768,32767 65535,0 0,-65534 -65535,0 0,65534 z"
                 style="fill:url(#linearGradient51363);stroke:none"
                 id="path51379" />
            </g>
          </g>
        </g>
      </g>
    </mask>
    <linearGradient
       x1="0"
       y1="0"
       x2="1"
       y2="0"
       gradientUnits="userSpaceOnUse"
       gradientTransform="matrix(0,7.7578125,7.7578125,0,186.43359,217.24609)"
       spreadMethod="pad"
       id="linearGradient51363">
      <stop
         style="stop-opacity:1;stop-color:#ffffff"
         offset="0"
         id="stop51365" />
      <stop
         style="stop-opacity:0;stop-color:#ffffff"
         offset="1"
         id="stop51367" />
    </linearGradient>
    <linearGradient
       x1="0"
       y1="0"
       x2="1"
       y2="0"
       gradientUnits="userSpaceOnUse"
       gradientTransform="matrix(0,7.7578125,7.7578125,0,186.43359,217.24609)"
       spreadMethod="pad"
       id="linearGradient51381">
      <stop
         style="stop-opacity:1;stop-color:#ffffff"
         offset="0"
         id="stop51383" />
      <stop
         style="stop-opacity:1;stop-color:#ffffff"
         offset="1"
         id="stop51385" />
    </linearGradient>
    <clipPath
       clipPathUnits="userSpaceOnUse"
       id="clipPath51291">
      <path
         inkscape:connector-curvature="0"
         d="m 180.598,225.004 11.672,0 0,-11.912 -11.672,0 0,11.912 z"
         id="path51293" />
    </clipPath>
    <clipPath
       clipPathUnits="userSpaceOnUse"
       id="clipPath51295">
      <path
         inkscape:connector-curvature="0"
         d="m 186.432,213.092 -0.121,0.082 c -0.415,0.285 -0.834,0.537 -1.256,0.724 -0.416,0.186 -0.838,0.307 -1.272,0.334 -0.543,0.038 -1.043,0.189 -1.48,0.436 -0.451,0.252 -0.834,0.605 -1.119,1.029 -0.176,0.262 -0.317,0.55 -0.413,0.86 -0.095,0.3 -0.148,0.621 -0.158,0.953 -0.013,0.611 0.2,1.077 0.43,1.579 0.041,0.087 0.08,0.175 0.125,0.277 0.092,0.208 0.184,0.434 0.25,0.677 0.066,0.234 0.109,0.492 0.107,0.774 -0.002,0.277 -0.05,0.578 -0.173,0.916 -0.129,0.345 -0.338,0.73 -0.659,1.167 l -0.095,0.131 1.523,1.973 0.164,-0.087 c 0.389,-0.208 0.752,-0.364 1.096,-0.468 0.334,-0.1 0.654,-0.148 0.967,-0.148 0.32,0 0.636,0.053 0.959,0.155 0.33,0.103 0.664,0.261 1.017,0.468 l 0.108,0.062 0.109,-0.062 c 0.355,-0.207 0.689,-0.365 1.018,-0.468 0.322,-0.102 0.638,-0.155 0.959,-0.155 0.314,0 0.632,0.048 0.968,0.148 0.344,0.104 0.707,0.26 1.096,0.468 l 0.162,0.087 1.526,-1.973 -0.096,-0.131 c -0.322,-0.437 -0.529,-0.82 -0.658,-1.167 -0.123,-0.338 -0.172,-0.639 -0.174,-0.916 -0.002,-0.282 0.041,-0.54 0.105,-0.774 0.069,-0.243 0.16,-0.469 0.252,-0.677 0.043,-0.102 0.084,-0.19 0.123,-0.277 0.229,-0.502 0.446,-0.968 0.43,-1.579 -0.008,-0.332 -0.063,-0.653 -0.156,-0.953 -0.098,-0.31 -0.237,-0.598 -0.412,-0.86 -0.288,-0.424 -0.668,-0.777 -1.12,-1.029 -0.437,-0.247 -0.939,-0.398 -1.482,-0.436 -0.432,-0.027 -0.855,-0.148 -1.269,-0.334 -0.424,-0.187 -0.844,-0.439 -1.258,-0.724 l -0.123,-0.082 z"
         id="path51297" />
    </clipPath>
    <mask
       maskUnits="userSpaceOnUse"
       x="0"
       y="0"
       width="1"
       height="1"
       id="mask51311">
      <g
         id="g51313">
        <g
           id="g51315">
          <g
             id="g51317">
            <g
               id="g51319">
              <path
                 inkscape:connector-curvature="0"
                 d="m -32768,32767 65535,0 0,-65534 -65535,0 0,65534 z"
                 style="fill:url(#linearGradient51303);stroke:none"
                 id="path51321" />
            </g>
          </g>
        </g>
      </g>
    </mask>
    <linearGradient
       x1="0"
       y1="0"
       x2="1"
       y2="0"
       gradientUnits="userSpaceOnUse"
       gradientTransform="matrix(0,11.912109,11.912109,0,186.43359,213.0918)"
       spreadMethod="pad"
       id="linearGradient51303">
      <stop
         style="stop-opacity:1;stop-color:#ffffff"
         offset="0"
         id="stop51305" />
      <stop
         style="stop-opacity:0;stop-color:#ffffff"
         offset="0.393936"
         id="stop51307" />
      <stop
         style="stop-opacity:0;stop-color:#ffffff"
         offset="1"
         id="stop51309" />
    </linearGradient>
    <linearGradient
       x1="0"
       y1="0"
       x2="1"
       y2="0"
       gradientUnits="userSpaceOnUse"
       gradientTransform="matrix(0,11.912109,11.912109,0,186.43359,213.0918)"
       spreadMethod="pad"
       id="linearGradient51323">
      <stop
         style="stop-opacity:1;stop-color:#262424"
         offset="0"
         id="stop51325" />
      <stop
         style="stop-opacity:1;stop-color:#262424"
         offset="1"
         id="stop51327" />
    </linearGradient>
    <linearGradient
       inkscape:collect="always"
       xlink:href="#linearGradient51381"
       id="linearGradient60147"
       gradientUnits="userSpaceOnUse"
       gradientTransform="matrix(0,7.7578125,7.7578125,0,186.43359,217.24609)"
       spreadMethod="pad"
       x1="0"
       y1="0"
       x2="1"
       y2="0" />
    <linearGradient
       inkscape:collect="always"
       xlink:href="#linearGradient51323"
       id="linearGradient60149"
       gradientUnits="userSpaceOnUse"
       gradientTransform="matrix(0,11.912109,11.912109,0,186.43359,213.0918)"
       spreadMethod="pad"
       x1="0"
       y1="0"
       x2="1"
       y2="0" />
    <linearGradient
       inkscape:collect="always"
       xlink:href="#linearGradient51323"
       id="linearGradient60189"
       gradientUnits="userSpaceOnUse"
       gradientTransform="matrix(0,11.912109,11.912109,0,186.43359,213.0918)"
       spreadMethod="pad"
       x1="0"
       y1="0"
       x2="1"
       y2="0" />
    <linearGradient
       inkscape:collect="always"
       xlink:href="#linearGradient51381"
       id="linearGradient60191"
       gradientUnits="userSpaceOnUse"
       gradientTransform="matrix(0,7.7578125,7.7578125,0,186.43359,217.24609)"
       spreadMethod="pad"
       x1="0"
       y1="0"
       x2="1"
       y2="0" />
    <mask
       maskUnits="userSpaceOnUse"
       x="0"
       y="0"
       width="1"
       height="1"
       id="mask77525">
      <g
         id="g77527">
        <g
           style="opacity:0.72000098"
           clip-path="url(#clipPath77485)"
           id="g77529">
          <g
             id="g77531">
            <g
               id="g77533" />
            <g
               id="g77535">
              <g
                 clip-path="url(#clipPath77489)"
                 id="g77537">
                <g
                   id="g77539">
                  <g
                     clip-path="url(#clipPath77493)"
                     id="g77541">
                    <g
                       id="g77543">
                      <g
                         id="g77545" />
                      <g
                         mask="url(#mask77505)"
                         id="g77547">
                        <g
                           id="g77549">
                          <path
                             inkscape:connector-curvature="0"
                             d="m 378.016,221.352 -1.151,4.016 -0.021,0.069 -0.071,0 -4.339,0 -0.073,0 -0.019,-0.069 -1.112,-3.881 c 0,0 0.229,-4.593 3.397,-4.593 3.168,0 3.389,4.458 3.389,4.458"
                             style="fill:url(#linearGradient77519);fill-rule:evenodd;stroke:none"
                             id="path77551" />
                        </g>
                      </g>
                    </g>
                  </g>
                </g>
              </g>
            </g>
          </g>
        </g>
      </g>
    </mask>
    <clipPath
       clipPathUnits="userSpaceOnUse"
       id="clipPath77485">
      <path
         inkscape:connector-curvature="0"
         d="m 371.23,225.437 6.786,0 0,-8.543 -6.786,0 0,8.543 z"
         id="path77487" />
    </clipPath>
    <clipPath
       clipPathUnits="userSpaceOnUse"
       id="clipPath77489">
      <path
         inkscape:connector-curvature="0"
         d="m 371.23,225.437 6.786,0 0,-8.543 -6.786,0 0,8.543 z"
         id="path77491" />
    </clipPath>
    <clipPath
       clipPathUnits="userSpaceOnUse"
       id="clipPath77493">
      <path
         inkscape:connector-curvature="0"
         d="m 378.016,221.352 -1.151,4.016 -0.021,0.069 -0.071,0 -4.339,0 -0.073,0 -0.019,-0.069 -1.112,-3.881 c 0,0 0.229,-4.593 3.397,-4.593 3.168,0 3.389,4.458 3.389,4.458"
         clip-rule="evenodd"
         id="path77495" />
    </clipPath>
    <mask
       maskUnits="userSpaceOnUse"
       x="0"
       y="0"
       width="1"
       height="1"
       id="mask77505">
      <g
         id="g77507">
        <g
           clip-path="url(#clipPath77497)"
           id="g77509">
          <g
             id="g77511">
            <g
               id="g77513" />
            <g
               id="g77515">
              <g
                 clip-path="url(#clipPath77501)"
                 id="g77517" />
            </g>
          </g>
        </g>
      </g>
    </mask>
    <clipPath
       clipPathUnits="userSpaceOnUse"
       id="clipPath77497">
      <path
         inkscape:connector-curvature="0"
         d="m -24278,24995 32766,0 0,-32766 -32766,0 0,32766 z"
         id="path77499" />
    </clipPath>
    <clipPath
       clipPathUnits="userSpaceOnUse"
       id="clipPath77501">
      <path
         inkscape:connector-curvature="0"
         d="m -24278,24995 32766,0 0,-32766 -32766,0 0,32766 z"
         id="path77503" />
    </clipPath>
    <linearGradient
       x1="0"
       y1="0"
       x2="1"
       y2="0"
       gradientUnits="userSpaceOnUse"
       gradientTransform="matrix(0,-8.5429688,-8.5429688,0,374.62305,225.43652)"
       spreadMethod="pad"
       id="linearGradient77519">
      <stop
         style="stop-opacity:1;stop-color:#262424"
         offset="0"
         id="stop77521" />
      <stop
         style="stop-opacity:1;stop-color:#ffffff"
         offset="1"
         id="stop77523" />
    </linearGradient>
    <clipPath
       clipPathUnits="userSpaceOnUse"
       id="clipPath77557">
      <path
         inkscape:connector-curvature="0"
         d="m 371.23,225.437 6.786,0 0,-8.543 -6.786,0 0,8.543 z"
         id="path77559" />
    </clipPath>
    <linearGradient
       x1="0"
       y1="0"
       x2="1"
       y2="0"
       gradientUnits="userSpaceOnUse"
       gradientTransform="matrix(0,-8.5429688,-8.5429688,0,374.62305,225.43652)"
       spreadMethod="pad"
       id="linearGradient77565">
      <stop
         style="stop-opacity:1;stop-color:#ffffff"
         offset="0"
         id="stop77567" />
      <stop
         style="stop-opacity:1;stop-color:#ffffff"
         offset="1"
         id="stop77569" />
    </linearGradient>
    <clipPath
       clipPathUnits="userSpaceOnUse"
       id="clipPath77427">
      <path
         inkscape:connector-curvature="0"
         d="m 369.457,225.696 10.287,0 0,-11.688 -10.287,0 0,11.688 z"
         id="path77429" />
    </clipPath>
    <clipPath
       clipPathUnits="userSpaceOnUse"
       id="clipPath77431">
      <path
         inkscape:connector-curvature="0"
         d="m 379.729,216.103 -2.727,9.521 -0.022,0.072 -0.076,0 -4.603,0 -0.076,0 -0.022,-0.072 -2.726,-9.521 -0.02,-0.057 0.043,-0.043 1.938,-1.965 0.029,-0.03 0.043,0 6.181,0 0.043,0 0.03,0.03 1.937,1.965 0.043,0.043 -0.015,0.057 z"
         clip-rule="evenodd"
         id="path77433" />
    </clipPath>
    <mask
       maskUnits="userSpaceOnUse"
       x="0"
       y="0"
       width="1"
       height="1"
       id="mask77445">
      <g
         id="g77447">
        <g
           id="g77449">
          <g
             id="g77451">
            <g
               id="g77453">
              <path
                 inkscape:connector-curvature="0"
                 d="m -32768,32767 65535,0 0,-65534 -65535,0 0,65534 z"
                 style="fill:url(#linearGradient77439);stroke:none"
                 id="path77455" />
            </g>
          </g>
        </g>
      </g>
    </mask>
    <linearGradient
       x1="0"
       y1="0"
       x2="1"
       y2="0"
       gradientUnits="userSpaceOnUse"
       gradientTransform="matrix(0,-11.688477,-11.688477,0,374.60059,225.69629)"
       spreadMethod="pad"
       id="linearGradient77439">
      <stop
         style="stop-opacity:0;stop-color:#ffffff"
         offset="0"
         id="stop77441" />
      <stop
         style="stop-opacity:1;stop-color:#ffffff"
         offset="1"
         id="stop77443" />
    </linearGradient>
    <linearGradient
       x1="0"
       y1="0"
       x2="1"
       y2="0"
       gradientUnits="userSpaceOnUse"
       gradientTransform="matrix(0,-11.688477,-11.688477,0,374.60059,225.69629)"
       spreadMethod="pad"
       id="linearGradient77457">
      <stop
         style="stop-opacity:1;stop-color:#262424"
         offset="0"
         id="stop77459" />
      <stop
         style="stop-opacity:1;stop-color:#262424"
         offset="1"
         id="stop77461" />
    </linearGradient>
    <linearGradient
       inkscape:collect="always"
       xlink:href="#linearGradient77457"
       id="linearGradient60547"
       gradientUnits="userSpaceOnUse"
       gradientTransform="matrix(0,-11.688477,-11.688477,0,374.60059,225.69629)"
       spreadMethod="pad"
       x1="0"
       y1="0"
       x2="1"
       y2="0" />
    <linearGradient
       inkscape:collect="always"
       xlink:href="#linearGradient77565"
       id="linearGradient60566"
       gradientUnits="userSpaceOnUse"
       gradientTransform="matrix(0,-8.5429688,-8.5429688,0,374.62305,225.43652)"
       spreadMethod="pad"
       x1="0"
       y1="0"
       x2="1"
       y2="0" />
    <clipPath
       clipPathUnits="userSpaceOnUse"
       id="clipPath73115">
      <path
         inkscape:connector-curvature="0"
         d="m 369.682,132.577 10.546,0 0,-7.014 -10.546,0 0,7.014 z"
         id="path73117" />
    </clipPath>
    <clipPath
       clipPathUnits="userSpaceOnUse"
       id="clipPath73119">
      <path
         inkscape:connector-curvature="0"
         d="m 374.955,125.563 c 3.903,0 5.273,3.008 5.273,3.008 l 0,4.006 -10.546,0 0,-4.006 c 0,0 1.369,-3.008 5.273,-3.008"
         id="path73121" />
    </clipPath>
    <mask
       maskUnits="userSpaceOnUse"
       x="0"
       y="0"
       width="1"
       height="1"
       id="mask73133">
      <g
         id="g73135">
        <g
           id="g73137">
          <g
             id="g73139">
            <g
               id="g73141">
              <path
                 inkscape:connector-curvature="0"
                 d="m -32768,32767 65535,0 0,-65534 -65535,0 0,65534 z"
                 style="fill:url(#linearGradient73127);stroke:none"
                 id="path73143" />
            </g>
          </g>
        </g>
      </g>
    </mask>
    <linearGradient
       x1="0"
       y1="0"
       x2="1"
       y2="0"
       gradientUnits="userSpaceOnUse"
       gradientTransform="matrix(0,7.0136719,7.0136719,0,374.95508,125.56348)"
       spreadMethod="pad"
       id="linearGradient73127">
      <stop
         style="stop-opacity:1;stop-color:#ffffff"
         offset="0"
         id="stop73129" />
      <stop
         style="stop-opacity:0;stop-color:#ffffff"
         offset="1"
         id="stop73131" />
    </linearGradient>
    <linearGradient
       x1="0"
       y1="0"
       x2="1"
       y2="0"
       gradientUnits="userSpaceOnUse"
       gradientTransform="matrix(0,7.0136719,7.0136719,0,374.95508,125.56348)"
       spreadMethod="pad"
       id="linearGradient73145">
      <stop
         style="stop-opacity:1;stop-color:#ffffff"
         offset="0"
         id="stop73147" />
      <stop
         style="stop-opacity:1;stop-color:#ffffff"
         offset="1"
         id="stop73149" />
    </linearGradient>
    <clipPath
       clipPathUnits="userSpaceOnUse"
       id="clipPath73055">
      <path
         inkscape:connector-curvature="0"
         d="m 369.537,132.763 10.836,0 0,-11.895 -10.836,0 0,11.895 z"
         id="path73057" />
    </clipPath>
    <clipPath
       clipPathUnits="userSpaceOnUse"
       id="clipPath73059">
      <path
         inkscape:connector-curvature="0"
         d="m 374.955,120.868 c 0,0.02 1.23,0.746 2.855,0.746 2.271,0 2.563,2.342 2.563,2.342 l 0,8.807 -10.836,0 0,-8.807 c 0,0 0.291,-2.342 2.563,-2.342 1.625,0 2.855,-0.726 2.855,-0.746"
         id="path73061" />
    </clipPath>
    <mask
       maskUnits="userSpaceOnUse"
       x="0"
       y="0"
       width="1"
       height="1"
       id="mask73075">
      <g
         id="g73077">
        <g
           id="g73079">
          <g
             id="g73081">
            <g
               id="g73083">
              <path
                 inkscape:connector-curvature="0"
                 d="m -32768,32767 65535,0 0,-65534 -65535,0 0,65534 z"
                 style="fill:url(#linearGradient73067);stroke:none"
                 id="path73085" />
            </g>
          </g>
        </g>
      </g>
    </mask>
    <linearGradient
       x1="0"
       y1="0"
       x2="1"
       y2="0"
       gradientUnits="userSpaceOnUse"
       gradientTransform="matrix(0,11.894531,11.894531,0,374.95508,120.86816)"
       spreadMethod="pad"
       id="linearGradient73067">
      <stop
         style="stop-opacity:1;stop-color:#ffffff"
         offset="0"
         id="stop73069" />
      <stop
         style="stop-opacity:0;stop-color:#ffffff"
         offset="0.393936"
         id="stop73071" />
      <stop
         style="stop-opacity:0;stop-color:#ffffff"
         offset="1"
         id="stop73073" />
    </linearGradient>
    <linearGradient
       x1="0"
       y1="0"
       x2="1"
       y2="0"
       gradientUnits="userSpaceOnUse"
       gradientTransform="matrix(0,11.894531,11.894531,0,374.95508,120.86816)"
       spreadMethod="pad"
       id="linearGradient73087">
      <stop
         style="stop-opacity:1;stop-color:#262424"
         offset="0"
         id="stop73089" />
      <stop
         style="stop-opacity:1;stop-color:#262424"
         offset="1"
         id="stop73091" />
    </linearGradient>
  </defs>
  <sodipodi:namedview
     id="base"
     pagecolor="#ffffff"
     bordercolor="#666666"
     borderopacity="1.0"
     inkscape:pageopacity="0.0"
     inkscape:pageshadow="2"
     inkscape:zoom="1"
     inkscape:cx="133.43476"
     inkscape:cy="116.52037"
     inkscape:document-units="px"
     inkscape:current-layer="layer1"
     showgrid="false"
     inkscape:window-width="1600"
     inkscape:window-height="844"
     inkscape:window-x="-4"
     inkscape:window-y="-4"
     inkscape:window-maximized="1"
     inkscape:showpageshadow="false">
    <inkscape:grid
       type="xygrid"
       id="grid3220"
       empspacing="5"
       visible="true"
       enabled="true"
       snapvisiblegridlinesonly="true" />
  </sodipodi:namedview>
  <metadata
     id="metadata59195">
    <rdf:RDF>
      <cc:Work
         rdf:about="">
        <dc:format>image/svg+xml</dc:format>
        <dc:type
           rdf:resource="http://purl.org/dc/dcmitype/StillImage" />
        <dc:title>Envigado FC logo</dc:title>
      </cc:Work>
    </rdf:RDF>
  </metadata>
  <g
     inkscape:label="Capa 1"
     inkscape:groupmode="layer"
     id="layer1"
     transform="translate(0,-852.36215)">
    <flowRoot
       xml:space="preserve"
       id="flowRoot3833-4-4"
       style="font-size:24px;font-style:normal;font-variant:normal;font-weight:bold;font-stretch:normal;line-height:125%;letter-spacing:0px;word-spacing:0px;fill:#f9f9f9;fill-opacity:1;stroke:none;font-family:Georgia;-inkscape-font-specification:Georgia Bold"
       transform="matrix(1.4791851,0,0,1.7221969,831.54285,1245.2048)"
       inkscape:export-filename="C:\Users\leonmario\Pictures\Escudos buena resolucion\logomedellin.png"
       inkscape:export-xdpi="180.61183"
       inkscape:export-ydpi="180.61183"><flowRegion
         id="flowRegion3835-5-1"><rect
           id="rect3837-5-1"
           width="31.112698"
           height="47.022602"
           x="3.1819806"
           y="9.1367788"
           style="font-size:24px;font-style:normal;font-variant:normal;font-weight:bold;font-stretch:normal;fill:#f9f9f9;font-family:Georgia;-inkscape-font-specification:Georgia Bold" /></flowRegion><flowPara
         id="flowPara3839-1-3">M</flowPara></flowRoot>    <flowRoot
       xml:space="preserve"
       id="flowRoot3851-7-7"
       style="font-size:14px;font-style:normal;font-variant:normal;font-weight:bold;font-stretch:normal;line-height:125%;letter-spacing:0px;word-spacing:0px;fill:#f9f9f9;fill-opacity:1;stroke:none;font-family:Georgia;-inkscape-font-specification:Georgia Bold"
       transform="matrix(3.1285721,0,0,3.277109,840.71032,1011.169)"
       inkscape:export-filename="C:\Users\leonmario\Pictures\Escudos buena resolucion\logomedellin.png"
       inkscape:export-xdpi="180.61183"
       inkscape:export-ydpi="180.61183"><flowRegion
         id="flowRegion3853-6-9"><rect
           id="rect3855-1-3"
           width="11.313709"
           height="19.798992"
           x="-10.253048"
           y="64.644661"
           style="font-size:14px;font-style:normal;font-variant:normal;font-weight:bold;font-stretch:normal;fill:#f9f9f9;font-family:Georgia;-inkscape-font-specification:Georgia Bold" /></flowRegion><flowPara
         id="flowPara3857-4-1">I</flowPara></flowRoot>    <g
       id="g60841"
       transform="matrix(0.72977548,0,0,0.87553077,-227.7711,138.63654)">
      <g
         transform="matrix(18.658875,0,0,-18.658875,414.5415,1042.6212)"
         id="g72989">
        <path
           inkscape:connector-curvature="0"
           id="path72991"
           style="fill:#4f8846;fill-opacity:1;fill-rule:nonzero;stroke:none"
           d="m 0,0 c 0,0.02 1.229,0.746 2.854,0.746 2.272,0 2.564,2.342 2.564,2.342 l 0,8.807 -10.836,0 0,-8.807 c 0,0 0.291,-2.342 2.563,-2.342 C -1.23,0.746 0,0.02 0,0" />
      </g>
      <path
         inkscape:connector-curvature="0"
         id="path72993"
         style="fill:#f2f2f2;fill-opacity:1;fill-rule:nonzero;stroke:none"
         d="m 508.2071,884.41621 -186.98059,0 0,-56.23786 186.98059,0 0,56.23786 z" />
      <g
         transform="matrix(18.658875,0,0,-18.658875,355.02895,872.90591)"
         id="g72995">
        <path
           inkscape:connector-curvature="0"
           id="path72997"
           style="fill:#010002;fill-opacity:1;fill-rule:nonzero;stroke:none"
           d="m 0,0 0,-0.142 -0.587,0 0,0.742 0.558,0 0,-0.141 -0.31,0 0,-0.154 0.276,0 0,-0.136 -0.276,0 L -0.339,0 0,0 z" />
      </g>
      <g
         transform="matrix(18.658875,0,0,-18.658875,360.45867,875.54801)"
         id="g72999">
        <path
           inkscape:connector-curvature="0"
           id="path73001"
           style="fill:#010002;fill-opacity:1;fill-rule:nonzero;stroke:none"
           d="m 0,0 -0.203,0 0,0.741 0.216,0 0.216,-0.351 0,0.351 0.193,0 L 0.422,0 0.238,0 0,0.392 0,0 z" />
      </g>
      <g
         transform="matrix(18.658875,0,0,-18.658875,382.68885,861.71805)"
         id="g73003">
        <path
           inkscape:connector-curvature="0"
           id="path73005"
           style="fill:#010002;fill-opacity:1;fill-rule:nonzero;stroke:none"
           d="m 0,0 -0.223,-0.741 -0.263,0 -0.221,0.741 0.26,0 0.111,-0.453 0.008,0 L -0.234,0 0,0 z" />
      </g>
      <path
         inkscape:connector-curvature="0"
         id="path73007"
         style="fill:#010002;fill-opacity:1;fill-rule:nonzero;stroke:none"
         d="m 383.92034,861.727 4.62738,0 0,13.82698 -4.62738,0 0,-13.82698 z" />
      <g
         transform="matrix(18.658875,0,0,-18.658875,398.57875,865.45431)"
         id="g73009">
        <path
           inkscape:connector-curvature="0"
           id="path73011"
           style="fill:#010002;fill-opacity:1;fill-rule:nonzero;stroke:none"
           d="m 0,0 c 0,0.046 -0.023,0.081 -0.09,0.081 -0.074,0 -0.095,-0.047 -0.095,-0.272 0,-0.205 0.023,-0.23 0.105,-0.23 0.074,0 0.098,0.032 0.098,0.111 l 0,0.045 -0.114,0 0,0.104 0.326,0 0,-0.38 -0.117,0 -0.026,0.05 -0.032,-0.02 c -0.059,-0.032 -0.102,-0.046 -0.188,-0.046 -0.203,0 -0.306,0.081 -0.306,0.365 0,0.303 0.085,0.404 0.349,0.404 0.197,0 0.316,-0.059 0.316,-0.197 0,-0.027 -0.009,-0.084 -0.019,-0.108 L -0.006,-0.097 C -0.002,-0.075 0,-0.033 0,0" />
      </g>
      <g
         transform="matrix(18.658875,0,0,-18.658875,411.00557,871.23109)"
         id="g73013">
        <path
           inkscape:connector-curvature="0"
           id="path73015"
           style="fill:#010002;fill-opacity:1;fill-rule:nonzero;stroke:none"
           d="M 0,0 -0.068,0.233 -0.117,0 0,0 z m -0.164,0.51 0.248,0 0.237,-0.741 -0.263,0 -0.033,0.127 -0.164,0 -0.029,-0.127 -0.211,0 0.215,0.741 z" />
      </g>
      <g
         transform="matrix(18.658875,0,0,-18.658875,423.03308,873.07012)"
         id="g73017">
        <path
           inkscape:connector-curvature="0"
           id="path73019"
           style="fill:#010002;fill-opacity:1;fill-rule:nonzero;stroke:none"
           d="m 0,0 0.058,0 c 0.08,0 0.118,0.031 0.118,0.221 0,0.198 -0.016,0.262 -0.121,0.262 L 0,0.483 0,0 z m 0.102,-0.133 -0.344,0 0,0.741 0.361,0 c 0.205,0 0.305,-0.162 0.305,-0.406 0,-0.195 -0.074,-0.335 -0.322,-0.335" />
      </g>
      <g
         transform="matrix(18.658875,0,0,-18.658875,437.68207,868.66064)"
         id="g73021">
        <path
           inkscape:connector-curvature="0"
           id="path73023"
           style="fill:#010002;fill-opacity:1;fill-rule:nonzero;stroke:none"
           d="m 0,0 c 0,-0.217 0.006,-0.246 0.079,-0.246 0.073,0 0.077,0.031 0.077,0.246 0,0.206 0.003,0.257 -0.077,0.257 C 0,0.257 0,0.204 0,0 m 0.079,-0.381 c -0.253,0 -0.345,0.069 -0.345,0.384 0,0.258 0.074,0.381 0.345,0.381 0.263,0 0.343,-0.104 0.343,-0.381 0,-0.285 -0.058,-0.384 -0.343,-0.384" />
      </g>
      <g
         transform="matrix(18.658875,0,0,-18.658875,453.57198,875.54801)"
         id="g73025">
        <path
           inkscape:connector-curvature="0"
           id="path73027"
           style="fill:#010002;fill-opacity:1;fill-rule:nonzero;stroke:none"
           d="m 0,0 0,0.741 0.544,0 0,-0.148 -0.296,0 0,-0.16 0.262,0 0,-0.137 -0.262,0 L 0.248,0 0,0 z" />
      </g>
      <path
         inkscape:connector-curvature="0"
         id="path73029"
         style="fill:#010002;fill-opacity:1;fill-rule:nonzero;stroke:none"
         d="m 462.28761,872.54916 4.19825,0 0,3.00482 -4.19825,0 0,-3.00482 z" />
      <g
         transform="matrix(18.658875,0,0,-18.658875,475.94785,865.85434)"
         id="g73031">
        <path
           inkscape:connector-curvature="0"
           id="path73033"
           style="fill:#010002;fill-opacity:1;fill-rule:nonzero;stroke:none"
           d="m 0,0 c 0,0.079 -0.014,0.103 -0.068,0.103 -0.075,0 -0.088,-0.059 -0.088,-0.257 0,-0.233 0.01,-0.248 0.086,-0.248 0.067,0 0.09,0.038 0.09,0.118 0,0.031 0.001,0.055 -0.002,0.095 l 0.211,-0.002 c 0.009,-0.042 0.013,-0.074 0.013,-0.121 0,-0.144 -0.09,-0.224 -0.326,-0.224 -0.228,0 -0.334,0.072 -0.334,0.347 0,0.303 0.072,0.422 0.348,0.422 0.207,0 0.3,-0.073 0.3,-0.193 0,-0.025 -0.013,-0.087 -0.021,-0.115 l -0.215,0 C -0.003,-0.058 0,-0.023 0,0" />
      </g>
      <path
         inkscape:connector-curvature="0"
         id="path73035"
         style="fill:#010002;fill-opacity:1;fill-rule:nonzero;stroke:none"
         d="m 482.10332,872.54916 4.19826,0 0,3.00482 -4.19826,0 0,-3.00482 z" />
      <path
         inkscape:connector-curvature="0"
         id="path73037"
         style="fill:#c2742a;fill-opacity:1;fill-rule:nonzero;stroke:none"
         d="m 502.13483,852.80718 -174.33002,0 0,-17.26021 174.33002,0 0,17.26021 z" />
      <g
         transform="matrix(18.658875,0,0,-18.658875,348.03186,884.42217)"
         id="g73039">
        <path
           inkscape:connector-curvature="0"
           id="path73041"
           style="fill:#c2742a;fill-opacity:1;fill-rule:nonzero;stroke:none"
           d="M 0,-0.51467396 0,-7.6545393 c 0.212,-0.050425 0.447,-0.080307 0.709,-0.080307 0.242,0 0.476,-0.014941 0.697,-0.040154 l 0,7.26032604 -1.406,0 z" />
      </g>
      <g
         transform="matrix(18.658875,0,0,-18.658875,401.16665,884.42217)"
         id="g73043">
        <path
           inkscape:connector-curvature="0"
           id="path73045"
           style="fill:#c2742a;fill-opacity:1;fill-rule:nonzero;stroke:none"
           d="M 0,-0.54176206 0,-8.1571911 C 0.352,-8.281666 0.592,-8.4014613 0.68,-8.452 l 0.073,0 c 0.086,0.049603 0.315,0.1647186 0.653,0.2863858 l 0,7.62385214 z"
           sodipodi:nodetypes="ccccccc" />
      </g>
      <g
         transform="matrix(18.658875,0,0,-18.658875,454.29967,884.42217)"
         id="g73047">
        <path
           inkscape:connector-curvature="0"
           id="path73049"
           style="fill:#c2742a;fill-opacity:1;fill-rule:nonzero;stroke:none"
           d="M 0,-0.56885017 0,-7.779 c 0.23,0.027806 0.472,0.043563 0.724,0.043563 0.251,0 0.477,0.026879 0.681,0.07415 l 0,7.09243693 -1.405,0 z" />
      </g>
    </g>
  </g>
</svg>
