<?xml version="1.0" encoding="utf-8"?>
<!-- Generator: Adobe Illustrator 16.0.0, SVG Export Plug-In . SVG Version: 6.00 Build 0)  -->
<!DOCTYPE svg PUBLIC "-//W3C//DTD SVG 1.1//EN" "http://www.w3.org/Graphics/SVG/1.1/DTD/svg11.dtd">
<svg version="1.1" id="Capa_1" xmlns="http://www.w3.org/2000/svg" xmlns:xlink="http://www.w3.org/1999/xlink" x="0px" y="0px"
	 width="493px" height="563px" viewBox="263.5 20.5 493 563" enable-background="new 263.5 20.5 493 563" xml:space="preserve">
<path id="XMLID_28_" fill="#FFFFFF" d="M720.648,301.104c-8.568,43.452-25.093,83.844-46.513,116.892
	c-52.632,78.948-142.596,126.684-164.016,137.7h-0.612l0,0l0,0h-0.611c-21.421-11.017-111.385-58.752-163.404-137.7
	c-22.032-33.048-37.944-73.44-46.512-116.892c-6.732-33.048-9.18-66.708-7.344-102.204h436.967
	C729.828,234.396,726.768,268.056,720.648,301.104z"/>
<g>
	<path id="XMLID_23_" fill="#B21117" d="M703.512,185.436v192.78c0,0,37.332-92.412,29.988-192.78H703.512z"/>
	<path id="XMLID_22_" fill="#B21117" d="M313.668,185.436v192.78c0,0-37.332-92.412-29.988-192.78H313.668z"/>
	<polygon id="XMLID_21_" fill="#B21117" points="372.42,192.78 372.42,466.344 430.56,512.856 430.56,192.78 	"/>
	<polygon id="XMLID_20_" fill="#B21117" points="647.82,192.78 647.82,466.344 589.68,512.856 589.68,192.78 	"/>
	<polygon id="XMLID_19_" fill="#B21117" points="535.212,557.532 509.508,569.16 483.192,557.532 483.192,192.78 535.212,192.78 	
		"/>
	<path fill="#1B2754" d="M742.68,145.044c0-1.224-1.224-3.672-1.224-4.896h-0.612c-11.628-0.612-146.88-7.344-231.336-112.608l0,0
		c-84.456,105.264-220.32,112.608-231.336,113.22h-0.612c0,1.224-1.224,3.672-1.224,4.896c-8.568,55.692-7.344,108.936,3.06,159.732
		c9.18,45.9,26.316,88.74,49.572,123.624c60.588,92.412,171.36,145.044,180.54,149.328c0,0,0,0,0.612,0l0,0l0,0l0,0l0,0
		c5.508-2.448,118.728-55.691,181.151-149.328c23.257-35.496,40.393-78.336,49.572-123.624
		C750.636,254.592,751.248,200.736,742.68,145.044z M720.648,301.104c-8.568,43.452-25.093,83.844-46.513,116.892
		c-52.632,78.948-142.596,126.684-164.016,137.7h-0.612l0,0l0,0h-0.611c-21.421-11.017-111.385-58.752-163.404-137.7
		c-22.032-33.048-37.944-73.44-46.512-116.892c-6.732-33.048-9.18-66.708-7.344-102.204h436.967
		C729.828,234.396,726.768,268.056,720.648,301.104z"/>
	<g id="XMLID_16_">
		<rect id="XMLID_24_" x="338.76" y="222.156" fill="#FFFFFF" width="341.496" height="70.38"/>
		<path id="XMLID_25_" fill="#1B2754" d="M688.824,301.104H330.192v-87.516h358.632V301.104z M338.76,292.536h341.496v-70.38H338.76
			V292.536z"/>
	</g>
	<g>
		<path fill="#1B2754" d="M394.452,233.784h14.076v25.092c0,5.508-0.612,9.18-1.225,12.24c-1.224,3.06-3.06,4.896-5.508,6.732
			c-3.06,1.836-6.732,3.06-11.016,3.06c-4.896,0-8.568-0.612-11.016-1.836c-2.448-1.224-4.284-3.06-6.12-5.508
			c-1.224-2.448-1.836-6.732-1.836-11.016h12.852c0,1.836,0,3.672,0.612,4.284c0.612,1.224,0.612,1.836,1.836,2.448
			c0.612,0.612,1.224,0.612,2.448,0.612c1.836,0,3.06-0.612,3.672-1.836c0.612-1.224,1.224-3.06,1.224-6.12V233.784z"/>
		<path fill="#1B2754" d="M447.696,233.784h14.075v27.54c0,2.448-0.611,5.508-1.224,7.956c-0.612,2.448-2.448,4.284-4.284,6.12
			s-3.672,3.06-5.508,3.672c-3.06,1.224-6.12,1.836-9.792,1.836c-2.448,0-4.896,0-7.344-0.612c-2.448-0.612-4.896-1.224-6.732-1.836
			c-1.836-1.224-3.672-2.448-4.896-4.284c-1.225-1.836-2.448-3.672-3.061-5.508c-0.611-3.06-1.224-5.508-1.224-7.956v-27.54h14.076
			v28.152c0,2.448,0.612,4.284,1.836,6.12c1.224,1.224,3.06,1.836,6.12,1.836c2.447,0,4.284-0.612,5.508-1.836
			s1.836-3.672,1.836-6.12v-27.54H447.696z"/>
		<path fill="#1B2754" d="M470.34,233.784h13.464l17.748,25.704v-25.704h13.464v46.512h-13.464l-17.136-25.704v25.704h-13.464
			v-46.512H470.34z"/>
		<path fill="#1B2754" d="M523.584,233.784h14.076v46.512h-14.076V233.784z"/>
		<path fill="#1B2754" d="M545.004,256.428c0-7.344,1.836-13.464,6.12-17.748c4.284-4.284,9.792-6.12,17.748-6.12
			s13.464,1.836,17.748,6.12c4.284,4.284,6.12,9.792,6.12,17.136c0,5.508-0.612,9.792-2.448,13.464
			c-1.836,3.672-4.284,6.12-7.956,7.956s-7.956,3.06-12.852,3.06c-5.509,0-9.792-0.612-12.853-2.448
			c-3.672-1.836-6.12-4.284-8.567-7.956C546.229,266.832,545.004,261.936,545.004,256.428z M559.08,257.04
			c0,4.896,0.612,7.956,2.448,9.792s4.284,3.06,7.344,3.06s5.508-1.224,7.344-3.06s2.448-5.508,2.448-11.016
			c0-4.284-0.612-7.344-2.448-9.792c-1.836-1.836-4.284-3.06-7.344-3.06s-5.508,1.224-6.732,3.06
			C560.304,248.472,559.08,252.144,559.08,257.04z"/>
		<path fill="#1B2754" d="M599.472,279.684v-46.512h23.868c4.284,0,7.956,0.612,10.404,1.224s4.284,2.448,5.508,4.284
			s2.448,4.284,2.448,7.344c0,2.448-0.612,4.896-1.836,6.732c-1.225,1.836-2.448,3.672-4.284,4.284
			c-1.224,0.612-3.061,1.224-4.896,1.836c1.836,0.612,3.061,1.224,3.672,1.836c0.612,0.612,1.225,1.224,2.448,2.448
			c1.225,1.224,1.836,2.448,1.836,3.06l6.732,13.464H629.46l-7.956-14.076c-1.224-1.836-1.836-3.06-2.448-3.672
			c-1.224-0.612-2.447-1.224-3.672-1.224h-1.224v18.972H599.472L599.472,279.684z M614.16,252.144h6.12c0.611,0,1.836,0,3.672-0.612
			c1.224,0,1.836-0.612,2.448-1.224c0.611-0.612,0.611-1.836,0.611-2.448c0-1.224-0.611-2.448-1.224-3.672
			c-1.224-0.612-2.448-1.224-5.508-1.224h-6.12V252.144z"/>
	</g>
	<polygon id="XMLID_7_" fill="#FFFFFF" points="509.508,55.08 516.24,68.544 530.928,70.38 519.912,81.396 522.972,96.084 
		509.508,89.352 496.044,96.084 498.492,81.396 487.476,70.38 502.776,68.544 	"/>
	<polygon id="XMLID_6_" fill="#FFFFFF" points="474.012,96.084 480.744,109.548 495.432,111.996 485.028,122.4 487.476,137.088 
		474.012,130.356 460.548,137.088 462.996,122.4 452.592,111.996 467.28,109.548 	"/>
	<polygon id="XMLID_5_" fill="#FFFFFF" points="544.392,96.084 551.124,109.548 565.813,111.996 555.408,122.4 557.856,137.088 
		544.392,130.356 530.928,137.088 533.376,122.4 522.972,111.996 537.66,109.548 	"/>
	<polygon id="XMLID_4_" fill="#FFFFFF" points="474.012,146.268 480.744,160.344 495.432,162.18 485.028,172.584 487.476,187.884 
		474.012,180.54 460.548,187.884 462.996,172.584 452.592,162.18 467.28,160.344 	"/>
	<polygon id="XMLID_3_" fill="#FFFFFF" points="406.08,146.268 412.813,160.344 427.5,162.18 416.484,172.584 418.932,187.884 
		406.08,180.54 392.616,187.884 395.064,172.584 384.048,162.18 399.348,160.344 	"/>
	<polygon id="XMLID_2_" fill="#FFFFFF" points="611.712,146.268 618.444,160.344 633.744,162.18 622.729,172.584 625.176,187.884 
		611.712,180.54 598.248,187.884 600.696,172.584 590.292,162.18 604.98,160.344 	"/>
	<polygon id="XMLID_1_" fill="#FFFFFF" points="543.78,146.268 550.512,160.344 565.2,162.18 554.796,172.584 557.244,187.884 
		543.78,180.54 530.316,187.884 532.764,172.584 521.748,162.18 537.048,160.344 	"/>
</g>
</svg>
