<?xml version="1.0" encoding="utf-8"?>
<!-- Generator: Adobe Illustrator 19.2.1, SVG Export Plug-In . SVG Version: 6.00 Build 0)  -->
<svg version="1.1" xmlns="http://www.w3.org/2000/svg" xmlns:xlink="http://www.w3.org/1999/xlink" x="0px" y="0px"
	 viewBox="0 0 475 494.3" style="enable-background:new 0 0 475 494.3;" xml:space="preserve">
<style type="text/css">
	.st0{fill:#FFFFFF;}
	.st1{fill:#05050C;}
	.st2{fill:#293378;}
</style>
<g id="Capa_2">
</g>
<g id="Capa_1">
	<g>
		<polygon class="st0" points="24.5,96.8 83.5,29.9 128.5,54.9 169.5,54.9 214.5,45.2 237.5,29.9 283.5,54.9 329.5,56.9 393.5,34.4 
			448.5,96.8 409.9,175.4 419.5,226.4 445,284.9 448.5,343.9 427,383.3 383.5,412.9 307,432.3 236.5,459.4 152.5,427.9 86,410.9 
			42.5,379.4 24.5,324.9 36.2,262.9 65.5,186 46.5,133.4 		"/>
		<path class="st1" d="M17.1,317.9c0.4-22.2,6.4-42.9,14.6-63.1c6.7-16.5,14.4-32.9,16.5-50.7c1.3-11.2,1.2-22.8-0.2-33.9
			c-3.2-26.5-17-48.7-32-70c-2.7-3.9-1.9-6.2,0.9-9.3c12.6-14.4,25.1-29,37.6-43.4c7.3-8.4,14.7-16.6,21.9-25c2.5-3,4.5-2.6,7.5-0.7
			c15.8,10.1,32.5,18.5,50.9,23c21.6,5.2,42.9,3.6,63.4-4.4c11.7-4.6,22.8-10.9,34-16.7c3.3-1.7,5.8-1.9,9.2-0.3
			c11.9,5.9,23.7,12.2,36.1,16.9c8.9,3.4,18.6,4.8,28.1,6.5c17.5,3.2,34.5-0.2,50.6-7c12-5.1,23.4-11.7,34.9-18
			c3.1-1.7,5.1-2.1,7.5,0.8c9.2,11,18.5,21.9,27.9,32.8c7.4,8.6,15,17.2,22.6,25.7c3.3,3.7,6.6,7.4,10,11c2.5,2.7,1.9,4.9,0,7.9
			c-8.3,13.2-16.9,26.3-24.1,40.1c-9.7,18.5-12.5,38.4-10,59.3c1.9,16.6,7.8,31.8,14.4,46.7c8.1,18.2,14.5,36.9,16.8,56.8
			c3.5,29.6-2.2,57.1-19,81.8c-13.9,20.4-33.8,33.4-57.2,40.1c-23.4,6.8-47.1,12.4-70.8,18.2c-20.5,5-40.3,11.6-58.4,22.9
			c-3.2,2-6.4,4.1-9.3,6.5c-3,2.6-4.9,2.8-8.3,0.1c-19.7-15.3-42.7-23.5-66.5-29.5c-23.3-5.9-46.8-11.3-69.8-18.1
			c-18.6-5.5-35.7-14.9-49.4-28.8c-15.3-15.5-24.7-34.3-27.6-56C18.8,332.6,18,325.2,17.1,317.9z M36.2,325.5
			c0.7,14.5,6.4,34.4,19.6,51.6c13.6,17.8,32.3,27.7,53.4,32.8c21.9,5.3,44.3,8.9,66.5,13.3c21.3,4.2,42.3,9.4,59.2,24.4
			c2.3,2,3.7,1,5.5-0.6c8.8-7.7,18.9-13.1,30-16.4c11.1-3.3,22.5-5.9,33.8-8.3c21.3-4.5,42.8-8,63.9-13.2
			c19-4.7,36.3-13.7,48.7-29.4c21-26.4,27-56.7,17.8-88.9c-5.6-19.5-13.7-38.5-21.9-57.2c-15.1-34.7-15.5-68.7,2.7-102.2
			c5.6-10.4,12.2-20.2,18.6-30.1c1.8-2.8,2.9-4.9,0.3-7.9c-13.1-14.9-26-29.9-38.9-45c-2.9-3.4-5.8-3.8-9.6-1.4
			c-3.9,2.5-8.1,4.7-12.2,6.8c-28.1,14.2-57.3,20-88.4,12.5c-12.9-3.1-25-8.3-35.8-15.9c-8.2-5.8-15.8-6.2-23.7,0
			c-0.4,0.3-0.8,0.5-1.3,0.8c-26.9,16.5-55.7,21.7-86.7,15.4c-17.6-3.6-33.9-10.6-49.3-19.8c-3.7-2.2-6.1-1.8-8.9,1.5
			C66.8,63,54,77.7,41.2,92.3c-2.8,3.2-2.8,5.5-0.4,9.1c6.7,10.1,13.4,20.3,19,31c12.7,24.1,17.8,49.7,10.3,76.3
			c-4.3,15.4-11,30.3-17.2,45.1C44.1,274.6,36.4,295.6,36.2,325.5z"/>
		<path class="st2" d="M57.1,93.4C66.6,82.9,76.4,72,86.4,61.4c0.9-1,3.8-0.8,5.4-0.2c13.3,4.5,26.3,10.7,39.9,13.7
			c30.1,6.7,59.8,5.7,87.8-9.2c5-2.6,9.6-6,14.2-9.3c2.6-1.8,4.5-2.1,7.1,0c11.4,9.3,24.6,15.9,38.7,18.7
			c13.5,2.7,27.7,3.2,41.6,2.8c22-0.6,42.8-7.3,62.5-17.1c1.3-0.7,4,0.1,5.4,1.1c2.1,1.5,3.6,3.9,5.4,5.9c5.3,5.8,5.3,5.8-0.2,11.3
			c-78.6,78.3-157.2,156.7-235.8,235c-21.7,21.6-43.4,43.3-65.1,64.9c-5.5,5.5-6.5,5.7-11.8,0.3c-21.1-21.5-33.2-46.9-30.4-77.7
			c1.5-16.4,8.7-31.3,15.6-46c7.2-15.3,14.7-30.6,18.2-47.3c5.5-26.3,1.8-51.7-8.7-76C70.5,119.3,63.7,106.9,57.1,93.4z M212.4,196
			c30.9-0.3,55.5-29.3,48.9-59.2c-7.4-33.3-42.8-49.6-72.7-33.2c-3,1.7-5.3,1.6-8.3,0c-17.5-9.3-35-9.2-51.5,1.9
			c-16.5,11.1-24.1,27-21.8,47.1c4,34.6,42.4,53.6,72.3,37.9c4.3-2.3,5.5-2.5,9.5,0C198.4,196.2,205.3,196,212.4,196z"/>
		<path class="st2" d="M404.9,79.6c3.9,4.2,8,8.2,11.3,12.6c0.9,1.2,0.2,4.4-0.7,6.2c-6.5,13.8-14.1,27.2-19.6,41.4
			c-12.6,31.9-11,63.7,2.8,95c5.9,13.4,12,26.7,17.9,40.1c12.2,28,9.3,54.8-5.1,81.3c-13.5,24.9-34.7,38.4-61.6,43.6
			c-18.7,3.6-37.7,5.9-56.5,9.1c-19.1,3.2-37,9.4-52.4,21.6c-2.1,1.6-3.9,2.7-6.5,0.5c-15.3-12.7-33.5-18.8-52.7-22.1
			c-18.8-3.2-37.8-5.6-56.5-9.2c-8.7-1.7-17.1-5.2-25.5-8.3c-5.1-1.9-5.2-3-1.3-6.9c17.7-17.6,35.5-35.2,53.2-52.9
			c55.5-55.3,111-110.6,166.6-165.8c28.4-28.2,56.8-56.5,85.1-84.7C403.6,80.7,404.1,80.3,404.9,79.6z M114.9,385.9
			c0.9,0.3,2.2,1,3.6,1.2c17.8,3.4,35.5,7,53.4,10c21.3,3.6,42.1,8.1,60.7,19.8c1.5,0.9,4.7,0.8,6.2-0.2
			c13.2-8.6,27.8-13.5,43.1-16.4c20.9-4,42-7,62.8-11.3c47.9-9.8,74-49.9,62.5-97.4c-3.9-16-11-31.3-17.2-46.7
			c-8-19.9-14.2-40.2-14.4-61.8c-0.2-27.1,7.6-52.1,20.6-75.7c1-1.8,1.7-3.7,2.3-5.2C304.1,196.8,209.5,291.3,114.9,385.9z"/>
		<path class="st2" d="M209.2,185.5c-4.9-0.8-7.7-1.3-12-3.6c-3-1.6-4.1-2.6-1.8-5.9c13.7-19.7,13.6-39.6-0.2-59.2
			c-2.1-3-1.1-4.2,1.8-5.6c16.1-7.8,35.4-1.6,47.1,12.6c14.8,18,7.5,53.7-22.8,60.9c-2.7,0.8-4.1,1.1-8.2,1.1
			C212.9,185.8,209.8,185.6,209.2,185.5z"/>
		<path class="st2" d="M155.9,186c-4.1,0-5.5-0.3-8.2-1.1c-30.3-7.2-37.6-42.9-22.8-60.9c11.7-14.2,31-20.4,47.1-12.6
			c2.9,1.4,3.9,2.6,1.8,5.6c-13.8,19.7-13.9,39.5-0.2,59.2c2.2,3.2,1.1,4.3-1.8,5.9c-4.3,2.3-7,2.8-12,3.6
			C159.2,185.8,156.1,186,155.9,186z"/>
		<path class="st2" d="M184,171.9c-7.2-6.9-9.6-15.8-9.7-25.5c-0.1-8.4,2.3-16.1,7.3-22.9c1.5-2,3.2-3.2,5.2-0.7
			c11.3,14.6,10.9,35-1.4,48.6C185.2,171.7,184.6,172.6,184,171.9z"/>
		<path class="st2" d="M303.8,346.1c-9.1-16.8-17.8-32.8-27.2-50.2c-2.8,9.9-5.1,18.3-7.5,26.7c-2.8,10.2-5.8,20.4-8.4,30.6
			c-1.5,5.8-6,3.8-9.3,3.4c-4-0.4-2.7-3.8-2.1-6.3c7.1-30,14.3-60,21.5-90c0.3-1.2,0.8-2.4,1.4-4.4c10.6,19.5,20.8,38.3,31.6,58.2
			c10.7-19.7,20.8-38.4,31.7-58.3c3.1,12.5,5.9,23.7,8.5,34.9c3.6,15.5,6.9,31.1,10.5,46.6c1,4.5,2.7,8.9,3.6,13.4
			c0.4,1.9-0.2,5.6-0.9,5.8c-3.2,0.7-7.1,2-9.5-1.8c-1-1.5-1.4-3.3-1.9-5.1c-4.4-15.8-8.7-31.7-13-47.5c-0.4-1.4-0.9-2.8-1.8-5.6
			C321.6,313.3,312.9,329.3,303.8,346.1z"/>
	</g>
</g>
</svg>
